M48
;DRILL file {KiCad 4.0.6} date 06/21/17 15:37:14
;FORMAT={-:-/ absolute / inch / decimal}
FMAT,2
INCH,TZ
T1C0.016
T2C0.040
%
G90
G05
M72
T1
X5.4031Y-4.4197
X5.4433Y-4.7189
X5.5366Y-4.1327
X5.5398Y-4.6858
X5.5441Y-4.0799
X5.5724Y-4.0283
X5.5724Y-4.8157
X5.5957Y-4.6949
X5.598Y-4.6201
X5.6252Y-4.3634
X5.648Y-4.7713
X5.7Y-4.6201
X5.7059Y-4.6783
X5.7575Y-4.2327
X5.8059Y-4.2591
X5.8465Y-4.2591
X5.8874Y-4.2043
X5.9311Y-4.0437
X5.9311Y-4.3882
X5.9465Y-5.0272
X5.9685Y-3.8697
X5.9803Y-4.3394
X6.0524Y-4.5146
X6.1248Y-4.9697
T2
X5.2717Y-3.8457
X5.2717Y-3.9457
X5.2717Y-4.0457
X5.2717Y-4.1457
X5.2717Y-4.2457
X5.2717Y-4.3457
X5.2717Y-4.4457
X5.2717Y-4.5457
X5.2717Y-4.6457
X5.2717Y-4.7457
X5.5697Y-4.8984
X5.6697Y-4.8984
X5.7697Y-4.8984
X5.8697Y-4.8984
X5.9697Y-4.8984
X6.0697Y-4.8984
X6.326Y-3.7843
X6.326Y-3.8843
X6.326Y-3.9843
X6.326Y-4.0843
X6.326Y-4.1843
X6.326Y-4.2843
X6.326Y-4.3843
X6.326Y-4.4843
X6.326Y-4.5843
X6.326Y-4.6843
T0
M30
