G04 #@! TF.FileFunction,Copper,L2,Bot,Signal*
%FSLAX46Y46*%
G04 Gerber Fmt 4.6, Leading zero omitted, Abs format (unit mm)*
G04 Created by KiCad (PCBNEW 4.0.6) date 06/21/17 15:37:03*
%MOMM*%
%LPD*%
G01*
G04 APERTURE LIST*
%ADD10C,0.100000*%
%ADD11C,0.300000*%
%ADD12C,1.879600*%
%ADD13C,0.600000*%
%ADD14C,0.250000*%
%ADD15C,0.254000*%
G04 APERTURE END LIST*
D10*
D11*
X158693144Y-131441000D02*
X157978858Y-131441000D01*
X158836001Y-131869571D02*
X158336001Y-130369571D01*
X157836001Y-131869571D01*
X156478858Y-131869571D02*
X156978858Y-131155286D01*
X157336001Y-131869571D02*
X157336001Y-130369571D01*
X156764573Y-130369571D01*
X156621715Y-130441000D01*
X156550287Y-130512429D01*
X156478858Y-130655286D01*
X156478858Y-130869571D01*
X156550287Y-131012429D01*
X156621715Y-131083857D01*
X156764573Y-131155286D01*
X157336001Y-131155286D01*
X155836001Y-131869571D02*
X155836001Y-130369571D01*
X155478858Y-130369571D01*
X155264573Y-130441000D01*
X155121715Y-130583857D01*
X155050287Y-130726714D01*
X154978858Y-131012429D01*
X154978858Y-131226714D01*
X155050287Y-131512429D01*
X155121715Y-131655286D01*
X155264573Y-131798143D01*
X155478858Y-131869571D01*
X155836001Y-131869571D01*
X154336001Y-130369571D02*
X154336001Y-131583857D01*
X154264573Y-131726714D01*
X154193144Y-131798143D01*
X154050287Y-131869571D01*
X153764573Y-131869571D01*
X153621715Y-131798143D01*
X153550287Y-131726714D01*
X153478858Y-131583857D01*
X153478858Y-130369571D01*
X152764572Y-131869571D02*
X152764572Y-130369571D01*
X152050286Y-131869571D02*
X152050286Y-130369571D01*
X151193143Y-131869571D01*
X151193143Y-130369571D01*
X150193143Y-130369571D02*
X149907429Y-130369571D01*
X149764571Y-130441000D01*
X149621714Y-130583857D01*
X149550286Y-130869571D01*
X149550286Y-131369571D01*
X149621714Y-131655286D01*
X149764571Y-131798143D01*
X149907429Y-131869571D01*
X150193143Y-131869571D01*
X150336000Y-131798143D01*
X150478857Y-131655286D01*
X150550286Y-131369571D01*
X150550286Y-130869571D01*
X150478857Y-130583857D01*
X150336000Y-130441000D01*
X150193143Y-130369571D01*
X147764571Y-131869571D02*
X147764571Y-130369571D01*
X147193143Y-130369571D01*
X147050285Y-130441000D01*
X146978857Y-130512429D01*
X146907428Y-130655286D01*
X146907428Y-130869571D01*
X146978857Y-131012429D01*
X147050285Y-131083857D01*
X147193143Y-131155286D01*
X147764571Y-131155286D01*
X145407428Y-131869571D02*
X145907428Y-131155286D01*
X146264571Y-131869571D02*
X146264571Y-130369571D01*
X145693143Y-130369571D01*
X145550285Y-130441000D01*
X145478857Y-130512429D01*
X145407428Y-130655286D01*
X145407428Y-130869571D01*
X145478857Y-131012429D01*
X145550285Y-131083857D01*
X145693143Y-131155286D01*
X146264571Y-131155286D01*
X144478857Y-130369571D02*
X144193143Y-130369571D01*
X144050285Y-130441000D01*
X143907428Y-130583857D01*
X143836000Y-130869571D01*
X143836000Y-131369571D01*
X143907428Y-131655286D01*
X144050285Y-131798143D01*
X144193143Y-131869571D01*
X144478857Y-131869571D01*
X144621714Y-131798143D01*
X144764571Y-131655286D01*
X144836000Y-131369571D01*
X144836000Y-130869571D01*
X144764571Y-130583857D01*
X144621714Y-130441000D01*
X144478857Y-130369571D01*
X142050285Y-131869571D02*
X142050285Y-130369571D01*
X141550285Y-131441000D01*
X141050285Y-130369571D01*
X141050285Y-131869571D01*
X140335999Y-131869571D02*
X140335999Y-130369571D01*
X139621713Y-131869571D02*
X139621713Y-130369571D01*
X138764570Y-131869571D01*
X138764570Y-130369571D01*
X138050284Y-131869571D02*
X138050284Y-130369571D01*
D12*
X141470000Y-124420000D03*
X144010000Y-124420000D03*
X146550000Y-124420000D03*
X149090000Y-124420000D03*
X151630000Y-124420000D03*
X154170000Y-124420000D03*
X160680000Y-118980000D03*
X160680000Y-116440000D03*
X160680000Y-113900000D03*
X160680000Y-111360000D03*
X160680000Y-108820000D03*
X160680000Y-106280000D03*
X160680000Y-103740000D03*
X160680000Y-101200000D03*
X160680000Y-98660000D03*
X160680000Y-96120000D03*
X133900000Y-120540000D03*
X133900000Y-118000000D03*
X133900000Y-115460000D03*
X133900000Y-112920000D03*
X133900000Y-110380000D03*
X133900000Y-107840000D03*
X133900000Y-105300000D03*
X133900000Y-102760000D03*
X133900000Y-100220000D03*
X133900000Y-97680000D03*
D13*
X155570000Y-126230000D03*
X151040000Y-127690000D03*
X151900000Y-110220000D03*
X149540000Y-106790000D03*
X150650000Y-102710000D03*
X151600000Y-98290000D03*
X140710000Y-119020000D03*
X140820000Y-103630000D03*
X144780000Y-117350000D03*
X144930000Y-118830000D03*
X153730000Y-114670000D03*
X141540000Y-122320000D03*
X150650000Y-111460000D03*
X143460000Y-121190000D03*
X148500000Y-108180000D03*
X142130000Y-119250000D03*
X138260000Y-119860000D03*
X142190000Y-117350000D03*
X147470000Y-108180000D03*
X137240000Y-112260000D03*
X142880000Y-110830000D03*
X140630000Y-104970000D03*
X146240000Y-107510000D03*
X141540000Y-102320000D03*
D14*
X152500000Y-126230000D02*
X155570000Y-126230000D01*
X151040000Y-127690000D02*
X152500000Y-126230000D01*
X151900000Y-110070000D02*
X151900000Y-110220000D01*
X149890000Y-108060000D02*
X151900000Y-110070000D01*
X149890000Y-107140000D02*
X149890000Y-108060000D01*
X149540000Y-106790000D02*
X149890000Y-107140000D01*
X150650000Y-99240000D02*
X150650000Y-102710000D01*
X151600000Y-98290000D02*
X150650000Y-99240000D01*
X139590000Y-115450000D02*
X139590000Y-104860000D01*
X140710000Y-119020000D02*
X139700000Y-118010000D01*
X139700000Y-118010000D02*
X139700000Y-115950000D01*
X139700000Y-115950000D02*
X139590000Y-115840000D01*
X139590000Y-115840000D02*
X139590000Y-115450000D01*
X139590000Y-104860000D02*
X140820000Y-103630000D01*
X144790000Y-117360000D02*
X144780000Y-117350000D01*
X144790000Y-118690000D02*
X144790000Y-117360000D01*
X144930000Y-118830000D02*
X144790000Y-118690000D01*
X153730000Y-120370000D02*
X153730000Y-114670000D01*
X152230000Y-121870000D02*
X153730000Y-120370000D01*
X141990000Y-121870000D02*
X152230000Y-121870000D01*
X141540000Y-122320000D02*
X141990000Y-121870000D01*
X150650000Y-114000000D02*
X150650000Y-111460000D01*
X143460000Y-121190000D02*
X150650000Y-114000000D01*
X148500000Y-109710000D02*
X148500000Y-108180000D01*
X143390000Y-114820000D02*
X148500000Y-109710000D01*
X143390000Y-117990000D02*
X143390000Y-114820000D01*
X142130000Y-119250000D02*
X143390000Y-117990000D01*
X139290000Y-120890000D02*
X138260000Y-119860000D01*
X140970000Y-120890000D02*
X139290000Y-120890000D01*
X141350000Y-120510000D02*
X140970000Y-120890000D01*
X141350000Y-118190000D02*
X141350000Y-120510000D01*
X142190000Y-117350000D02*
X141350000Y-118190000D01*
X147470000Y-100580000D02*
X147470000Y-108180000D01*
X146470000Y-99580000D02*
X147470000Y-100580000D01*
X140030000Y-99580000D02*
X146470000Y-99580000D01*
X138190000Y-101420000D02*
X140030000Y-99580000D01*
X138190000Y-111310000D02*
X138190000Y-101420000D01*
X137240000Y-112260000D02*
X138190000Y-111310000D01*
X142880000Y-107220000D02*
X142880000Y-110830000D01*
X140630000Y-104970000D02*
X142880000Y-107220000D01*
X146240000Y-107020000D02*
X146240000Y-107510000D01*
X141540000Y-102320000D02*
X146240000Y-107020000D01*
D15*
G36*
X168783000Y-133223000D02*
X128397000Y-133223000D01*
X128397000Y-91440000D01*
X129238000Y-91440000D01*
X129238000Y-129540000D01*
X129260988Y-129655570D01*
X129326454Y-129753546D01*
X129424430Y-129819012D01*
X129540000Y-129842000D01*
X163830000Y-129842000D01*
X163945570Y-129819012D01*
X164043546Y-129753546D01*
X164109012Y-129655570D01*
X164132000Y-129540000D01*
X164132000Y-91440000D01*
X164109012Y-91324430D01*
X164043546Y-91226454D01*
X163945570Y-91160988D01*
X163830000Y-91138000D01*
X129540000Y-91138000D01*
X129424430Y-91160988D01*
X129326454Y-91226454D01*
X129260988Y-91324430D01*
X129238000Y-91440000D01*
X128397000Y-91440000D01*
X128397000Y-90297000D01*
X168783000Y-90297000D01*
X168783000Y-133223000D01*
X168783000Y-133223000D01*
G37*
X168783000Y-133223000D02*
X128397000Y-133223000D01*
X128397000Y-91440000D01*
X129238000Y-91440000D01*
X129238000Y-129540000D01*
X129260988Y-129655570D01*
X129326454Y-129753546D01*
X129424430Y-129819012D01*
X129540000Y-129842000D01*
X163830000Y-129842000D01*
X163945570Y-129819012D01*
X164043546Y-129753546D01*
X164109012Y-129655570D01*
X164132000Y-129540000D01*
X164132000Y-91440000D01*
X164109012Y-91324430D01*
X164043546Y-91226454D01*
X163945570Y-91160988D01*
X163830000Y-91138000D01*
X129540000Y-91138000D01*
X129424430Y-91160988D01*
X129326454Y-91226454D01*
X129260988Y-91324430D01*
X129238000Y-91440000D01*
X128397000Y-91440000D01*
X128397000Y-90297000D01*
X168783000Y-90297000D01*
X168783000Y-133223000D01*
G36*
X163528000Y-129238000D02*
X129842000Y-129238000D01*
X129842000Y-127814171D01*
X150412891Y-127814171D01*
X150508145Y-128044703D01*
X150684369Y-128221235D01*
X150914735Y-128316891D01*
X151164171Y-128317109D01*
X151394703Y-128221855D01*
X151571235Y-128045631D01*
X151666891Y-127815265D01*
X151666990Y-127702234D01*
X152687224Y-126682000D01*
X155135272Y-126682000D01*
X155214369Y-126761235D01*
X155444735Y-126856891D01*
X155694171Y-126857109D01*
X155924703Y-126761855D01*
X156101235Y-126585631D01*
X156196891Y-126355265D01*
X156197109Y-126105829D01*
X156101855Y-125875297D01*
X155925631Y-125698765D01*
X155695265Y-125603109D01*
X155445829Y-125602891D01*
X155215297Y-125698145D01*
X155135302Y-125778000D01*
X152500000Y-125778000D01*
X152327027Y-125812406D01*
X152180388Y-125910388D01*
X151027787Y-127062989D01*
X150915829Y-127062891D01*
X150685297Y-127158145D01*
X150508765Y-127334369D01*
X150413109Y-127564735D01*
X150412891Y-127814171D01*
X129842000Y-127814171D01*
X129842000Y-124670877D01*
X140202981Y-124670877D01*
X140395433Y-125136647D01*
X140751479Y-125493314D01*
X141216912Y-125686580D01*
X141720877Y-125687019D01*
X142186647Y-125494567D01*
X142543314Y-125138521D01*
X142736580Y-124673088D01*
X142736581Y-124670877D01*
X142742981Y-124670877D01*
X142935433Y-125136647D01*
X143291479Y-125493314D01*
X143756912Y-125686580D01*
X144260877Y-125687019D01*
X144726647Y-125494567D01*
X145083314Y-125138521D01*
X145276580Y-124673088D01*
X145276581Y-124670877D01*
X145282981Y-124670877D01*
X145475433Y-125136647D01*
X145831479Y-125493314D01*
X146296912Y-125686580D01*
X146800877Y-125687019D01*
X147266647Y-125494567D01*
X147623314Y-125138521D01*
X147816580Y-124673088D01*
X147816581Y-124670877D01*
X147822981Y-124670877D01*
X148015433Y-125136647D01*
X148371479Y-125493314D01*
X148836912Y-125686580D01*
X149340877Y-125687019D01*
X149806647Y-125494567D01*
X150163314Y-125138521D01*
X150356580Y-124673088D01*
X150356581Y-124670877D01*
X150362981Y-124670877D01*
X150555433Y-125136647D01*
X150911479Y-125493314D01*
X151376912Y-125686580D01*
X151880877Y-125687019D01*
X152346647Y-125494567D01*
X152703314Y-125138521D01*
X152896580Y-124673088D01*
X152896581Y-124670877D01*
X152902981Y-124670877D01*
X153095433Y-125136647D01*
X153451479Y-125493314D01*
X153916912Y-125686580D01*
X154420877Y-125687019D01*
X154886647Y-125494567D01*
X155243314Y-125138521D01*
X155436580Y-124673088D01*
X155437019Y-124169123D01*
X155244567Y-123703353D01*
X154888521Y-123346686D01*
X154423088Y-123153420D01*
X153919123Y-123152981D01*
X153453353Y-123345433D01*
X153096686Y-123701479D01*
X152903420Y-124166912D01*
X152902981Y-124670877D01*
X152896581Y-124670877D01*
X152897019Y-124169123D01*
X152704567Y-123703353D01*
X152348521Y-123346686D01*
X151883088Y-123153420D01*
X151379123Y-123152981D01*
X150913353Y-123345433D01*
X150556686Y-123701479D01*
X150363420Y-124166912D01*
X150362981Y-124670877D01*
X150356581Y-124670877D01*
X150357019Y-124169123D01*
X150164567Y-123703353D01*
X149808521Y-123346686D01*
X149343088Y-123153420D01*
X148839123Y-123152981D01*
X148373353Y-123345433D01*
X148016686Y-123701479D01*
X147823420Y-124166912D01*
X147822981Y-124670877D01*
X147816581Y-124670877D01*
X147817019Y-124169123D01*
X147624567Y-123703353D01*
X147268521Y-123346686D01*
X146803088Y-123153420D01*
X146299123Y-123152981D01*
X145833353Y-123345433D01*
X145476686Y-123701479D01*
X145283420Y-124166912D01*
X145282981Y-124670877D01*
X145276581Y-124670877D01*
X145277019Y-124169123D01*
X145084567Y-123703353D01*
X144728521Y-123346686D01*
X144263088Y-123153420D01*
X143759123Y-123152981D01*
X143293353Y-123345433D01*
X142936686Y-123701479D01*
X142743420Y-124166912D01*
X142742981Y-124670877D01*
X142736581Y-124670877D01*
X142737019Y-124169123D01*
X142544567Y-123703353D01*
X142188521Y-123346686D01*
X141723088Y-123153420D01*
X141219123Y-123152981D01*
X140753353Y-123345433D01*
X140396686Y-123701479D01*
X140203420Y-124166912D01*
X140202981Y-124670877D01*
X129842000Y-124670877D01*
X129842000Y-122444171D01*
X140912891Y-122444171D01*
X141008145Y-122674703D01*
X141184369Y-122851235D01*
X141414735Y-122946891D01*
X141664171Y-122947109D01*
X141894703Y-122851855D01*
X142071235Y-122675631D01*
X142166891Y-122445265D01*
X142166990Y-122332234D01*
X142177224Y-122322000D01*
X152230000Y-122322000D01*
X152402973Y-122287594D01*
X152549612Y-122189612D01*
X154049612Y-120689613D01*
X154147594Y-120542973D01*
X154182000Y-120370000D01*
X154182000Y-119230877D01*
X159412981Y-119230877D01*
X159605433Y-119696647D01*
X159961479Y-120053314D01*
X160426912Y-120246580D01*
X160930877Y-120247019D01*
X161396647Y-120054567D01*
X161753314Y-119698521D01*
X161946580Y-119233088D01*
X161947019Y-118729123D01*
X161754567Y-118263353D01*
X161398521Y-117906686D01*
X160933088Y-117713420D01*
X160429123Y-117712981D01*
X159963353Y-117905433D01*
X159606686Y-118261479D01*
X159413420Y-118726912D01*
X159412981Y-119230877D01*
X154182000Y-119230877D01*
X154182000Y-116690877D01*
X159412981Y-116690877D01*
X159605433Y-117156647D01*
X159961479Y-117513314D01*
X160426912Y-117706580D01*
X160930877Y-117707019D01*
X161396647Y-117514567D01*
X161753314Y-117158521D01*
X161946580Y-116693088D01*
X161947019Y-116189123D01*
X161754567Y-115723353D01*
X161398521Y-115366686D01*
X160933088Y-115173420D01*
X160429123Y-115172981D01*
X159963353Y-115365433D01*
X159606686Y-115721479D01*
X159413420Y-116186912D01*
X159412981Y-116690877D01*
X154182000Y-116690877D01*
X154182000Y-115104728D01*
X154261235Y-115025631D01*
X154356891Y-114795265D01*
X154357109Y-114545829D01*
X154261855Y-114315297D01*
X154097722Y-114150877D01*
X159412981Y-114150877D01*
X159605433Y-114616647D01*
X159961479Y-114973314D01*
X160426912Y-115166580D01*
X160930877Y-115167019D01*
X161396647Y-114974567D01*
X161753314Y-114618521D01*
X161946580Y-114153088D01*
X161947019Y-113649123D01*
X161754567Y-113183353D01*
X161398521Y-112826686D01*
X160933088Y-112633420D01*
X160429123Y-112632981D01*
X159963353Y-112825433D01*
X159606686Y-113181479D01*
X159413420Y-113646912D01*
X159412981Y-114150877D01*
X154097722Y-114150877D01*
X154085631Y-114138765D01*
X153855265Y-114043109D01*
X153605829Y-114042891D01*
X153375297Y-114138145D01*
X153198765Y-114314369D01*
X153103109Y-114544735D01*
X153102891Y-114794171D01*
X153198145Y-115024703D01*
X153278000Y-115104698D01*
X153278000Y-120182775D01*
X152042776Y-121418000D01*
X144044232Y-121418000D01*
X144086891Y-121315265D01*
X144086990Y-121202234D01*
X150969613Y-114319612D01*
X151067594Y-114172973D01*
X151102000Y-114000000D01*
X151102000Y-111894728D01*
X151181235Y-111815631D01*
X151266256Y-111610877D01*
X159412981Y-111610877D01*
X159605433Y-112076647D01*
X159961479Y-112433314D01*
X160426912Y-112626580D01*
X160930877Y-112627019D01*
X161396647Y-112434567D01*
X161753314Y-112078521D01*
X161946580Y-111613088D01*
X161947019Y-111109123D01*
X161754567Y-110643353D01*
X161398521Y-110286686D01*
X160933088Y-110093420D01*
X160429123Y-110092981D01*
X159963353Y-110285433D01*
X159606686Y-110641479D01*
X159413420Y-111106912D01*
X159412981Y-111610877D01*
X151266256Y-111610877D01*
X151276891Y-111585265D01*
X151277109Y-111335829D01*
X151181855Y-111105297D01*
X151005631Y-110928765D01*
X150775265Y-110833109D01*
X150525829Y-110832891D01*
X150295297Y-110928145D01*
X150118765Y-111104369D01*
X150023109Y-111334735D01*
X150022891Y-111584171D01*
X150118145Y-111814703D01*
X150198000Y-111894698D01*
X150198000Y-113812775D01*
X145483381Y-118527394D01*
X145461855Y-118475297D01*
X145285631Y-118298765D01*
X145242000Y-118280648D01*
X145242000Y-117774745D01*
X145311235Y-117705631D01*
X145406891Y-117475265D01*
X145407109Y-117225829D01*
X145311855Y-116995297D01*
X145135631Y-116818765D01*
X144905265Y-116723109D01*
X144655829Y-116722891D01*
X144425297Y-116818145D01*
X144248765Y-116994369D01*
X144153109Y-117224735D01*
X144152891Y-117474171D01*
X144248145Y-117704703D01*
X144338000Y-117794715D01*
X144338000Y-118620708D01*
X144303109Y-118704735D01*
X144302891Y-118954171D01*
X144398145Y-119184703D01*
X144574369Y-119361235D01*
X144627485Y-119383291D01*
X143447787Y-120562989D01*
X143335829Y-120562891D01*
X143105297Y-120658145D01*
X142928765Y-120834369D01*
X142833109Y-121064735D01*
X142832891Y-121314171D01*
X142875792Y-121418000D01*
X141990000Y-121418000D01*
X141817027Y-121452406D01*
X141670388Y-121550388D01*
X141527787Y-121692989D01*
X141415829Y-121692891D01*
X141185297Y-121788145D01*
X141008765Y-121964369D01*
X140913109Y-122194735D01*
X140912891Y-122444171D01*
X129842000Y-122444171D01*
X129842000Y-120790877D01*
X132632981Y-120790877D01*
X132825433Y-121256647D01*
X133181479Y-121613314D01*
X133646912Y-121806580D01*
X134150877Y-121807019D01*
X134616647Y-121614567D01*
X134973314Y-121258521D01*
X135166580Y-120793088D01*
X135167019Y-120289123D01*
X134974567Y-119823353D01*
X134618521Y-119466686D01*
X134153088Y-119273420D01*
X133649123Y-119272981D01*
X133183353Y-119465433D01*
X132826686Y-119821479D01*
X132633420Y-120286912D01*
X132632981Y-120790877D01*
X129842000Y-120790877D01*
X129842000Y-118250877D01*
X132632981Y-118250877D01*
X132825433Y-118716647D01*
X133181479Y-119073314D01*
X133646912Y-119266580D01*
X134150877Y-119267019D01*
X134616647Y-119074567D01*
X134973314Y-118718521D01*
X135166580Y-118253088D01*
X135167019Y-117749123D01*
X134974567Y-117283353D01*
X134618521Y-116926686D01*
X134153088Y-116733420D01*
X133649123Y-116732981D01*
X133183353Y-116925433D01*
X132826686Y-117281479D01*
X132633420Y-117746912D01*
X132632981Y-118250877D01*
X129842000Y-118250877D01*
X129842000Y-115710877D01*
X132632981Y-115710877D01*
X132825433Y-116176647D01*
X133181479Y-116533314D01*
X133646912Y-116726580D01*
X134150877Y-116727019D01*
X134616647Y-116534567D01*
X134973314Y-116178521D01*
X135166580Y-115713088D01*
X135167019Y-115209123D01*
X134974567Y-114743353D01*
X134618521Y-114386686D01*
X134153088Y-114193420D01*
X133649123Y-114192981D01*
X133183353Y-114385433D01*
X132826686Y-114741479D01*
X132633420Y-115206912D01*
X132632981Y-115710877D01*
X129842000Y-115710877D01*
X129842000Y-113170877D01*
X132632981Y-113170877D01*
X132825433Y-113636647D01*
X133181479Y-113993314D01*
X133646912Y-114186580D01*
X134150877Y-114187019D01*
X134616647Y-113994567D01*
X134973314Y-113638521D01*
X135166580Y-113173088D01*
X135167019Y-112669123D01*
X135049280Y-112384171D01*
X136612891Y-112384171D01*
X136708145Y-112614703D01*
X136884369Y-112791235D01*
X137114735Y-112886891D01*
X137364171Y-112887109D01*
X137594703Y-112791855D01*
X137771235Y-112615631D01*
X137866891Y-112385265D01*
X137866990Y-112272234D01*
X138509612Y-111629612D01*
X138607594Y-111482973D01*
X138642000Y-111310000D01*
X138642000Y-102444171D01*
X140912891Y-102444171D01*
X141008145Y-102674703D01*
X141184369Y-102851235D01*
X141414735Y-102946891D01*
X141527766Y-102946990D01*
X145721967Y-107141191D01*
X145708765Y-107154369D01*
X145613109Y-107384735D01*
X145612891Y-107634171D01*
X145708145Y-107864703D01*
X145884369Y-108041235D01*
X146114735Y-108136891D01*
X146364171Y-108137109D01*
X146594703Y-108041855D01*
X146771235Y-107865631D01*
X146866891Y-107635265D01*
X146867109Y-107385829D01*
X146771855Y-107155297D01*
X146692000Y-107075302D01*
X146692000Y-107020000D01*
X146657594Y-106847027D01*
X146559612Y-106700388D01*
X142167011Y-102307787D01*
X142167109Y-102195829D01*
X142071855Y-101965297D01*
X141895631Y-101788765D01*
X141665265Y-101693109D01*
X141415829Y-101692891D01*
X141185297Y-101788145D01*
X141008765Y-101964369D01*
X140913109Y-102194735D01*
X140912891Y-102444171D01*
X138642000Y-102444171D01*
X138642000Y-101607224D01*
X140217224Y-100032000D01*
X146282776Y-100032000D01*
X147018000Y-100767225D01*
X147018000Y-107745272D01*
X146938765Y-107824369D01*
X146843109Y-108054735D01*
X146842891Y-108304171D01*
X146938145Y-108534703D01*
X147114369Y-108711235D01*
X147344735Y-108806891D01*
X147594171Y-108807109D01*
X147824703Y-108711855D01*
X147985125Y-108551713D01*
X148048000Y-108614698D01*
X148048000Y-109522776D01*
X143070388Y-114500388D01*
X142972406Y-114647027D01*
X142938000Y-114820000D01*
X142938000Y-117802776D01*
X142117787Y-118622989D01*
X142005829Y-118622891D01*
X141802000Y-118707112D01*
X141802000Y-118377224D01*
X142202213Y-117977011D01*
X142314171Y-117977109D01*
X142544703Y-117881855D01*
X142721235Y-117705631D01*
X142816891Y-117475265D01*
X142817109Y-117225829D01*
X142721855Y-116995297D01*
X142545631Y-116818765D01*
X142315265Y-116723109D01*
X142065829Y-116722891D01*
X141835297Y-116818145D01*
X141658765Y-116994369D01*
X141563109Y-117224735D01*
X141563010Y-117337765D01*
X141030388Y-117870388D01*
X140932406Y-118017027D01*
X140898000Y-118190000D01*
X140898000Y-118419159D01*
X140835265Y-118393109D01*
X140722234Y-118393010D01*
X140152000Y-117822776D01*
X140152000Y-115950000D01*
X140117594Y-115777027D01*
X140117594Y-115777026D01*
X140042000Y-115663893D01*
X140042000Y-105188822D01*
X140098145Y-105324703D01*
X140274369Y-105501235D01*
X140504735Y-105596891D01*
X140617766Y-105596990D01*
X142428000Y-107407225D01*
X142428000Y-110395272D01*
X142348765Y-110474369D01*
X142253109Y-110704735D01*
X142252891Y-110954171D01*
X142348145Y-111184703D01*
X142524369Y-111361235D01*
X142754735Y-111456891D01*
X143004171Y-111457109D01*
X143234703Y-111361855D01*
X143411235Y-111185631D01*
X143506891Y-110955265D01*
X143507109Y-110705829D01*
X143411855Y-110475297D01*
X143332000Y-110395302D01*
X143332000Y-107220000D01*
X143297594Y-107047027D01*
X143263931Y-106996647D01*
X143199613Y-106900388D01*
X141257011Y-104957787D01*
X141257109Y-104845829D01*
X141161855Y-104615297D01*
X140985631Y-104438765D01*
X140755265Y-104343109D01*
X140746123Y-104343101D01*
X140832213Y-104257011D01*
X140944171Y-104257109D01*
X141174703Y-104161855D01*
X141351235Y-103985631D01*
X141446891Y-103755265D01*
X141447109Y-103505829D01*
X141351855Y-103275297D01*
X141175631Y-103098765D01*
X140945265Y-103003109D01*
X140695829Y-103002891D01*
X140465297Y-103098145D01*
X140288765Y-103274369D01*
X140193109Y-103504735D01*
X140193010Y-103617766D01*
X139270388Y-104540388D01*
X139172406Y-104687027D01*
X139138000Y-104860000D01*
X139138000Y-115840000D01*
X139172406Y-116012973D01*
X139248000Y-116126106D01*
X139248000Y-118010000D01*
X139282406Y-118182973D01*
X139380388Y-118329612D01*
X140082989Y-119032213D01*
X140082891Y-119144171D01*
X140178145Y-119374703D01*
X140354369Y-119551235D01*
X140584735Y-119646891D01*
X140834171Y-119647109D01*
X140898000Y-119620735D01*
X140898000Y-120322776D01*
X140782776Y-120438000D01*
X139477224Y-120438000D01*
X138887011Y-119847787D01*
X138887109Y-119735829D01*
X138791855Y-119505297D01*
X138615631Y-119328765D01*
X138385265Y-119233109D01*
X138135829Y-119232891D01*
X137905297Y-119328145D01*
X137728765Y-119504369D01*
X137633109Y-119734735D01*
X137632891Y-119984171D01*
X137728145Y-120214703D01*
X137904369Y-120391235D01*
X138134735Y-120486891D01*
X138247766Y-120486990D01*
X138970388Y-121209612D01*
X139117027Y-121307594D01*
X139290000Y-121342000D01*
X140970000Y-121342000D01*
X141142973Y-121307594D01*
X141289612Y-121209612D01*
X141669612Y-120829612D01*
X141767594Y-120682973D01*
X141802000Y-120510000D01*
X141802000Y-119792708D01*
X142004735Y-119876891D01*
X142254171Y-119877109D01*
X142484703Y-119781855D01*
X142661235Y-119605631D01*
X142756891Y-119375265D01*
X142756990Y-119262234D01*
X143709612Y-118309612D01*
X143807594Y-118162973D01*
X143842000Y-117990000D01*
X143842000Y-115007224D01*
X148819612Y-110029612D01*
X148917594Y-109882973D01*
X148921110Y-109865297D01*
X148952000Y-109710000D01*
X148952000Y-108614728D01*
X149031235Y-108535631D01*
X149126891Y-108305265D01*
X149127109Y-108055829D01*
X149031855Y-107825297D01*
X148855631Y-107648765D01*
X148625265Y-107553109D01*
X148375829Y-107552891D01*
X148145297Y-107648145D01*
X147984875Y-107808287D01*
X147922000Y-107745302D01*
X147922000Y-106914171D01*
X148912891Y-106914171D01*
X149008145Y-107144703D01*
X149184369Y-107321235D01*
X149414735Y-107416891D01*
X149438000Y-107416911D01*
X149438000Y-108060000D01*
X149472406Y-108232973D01*
X149570388Y-108379612D01*
X151276748Y-110085972D01*
X151273109Y-110094735D01*
X151272891Y-110344171D01*
X151368145Y-110574703D01*
X151544369Y-110751235D01*
X151774735Y-110846891D01*
X152024171Y-110847109D01*
X152254703Y-110751855D01*
X152431235Y-110575631D01*
X152526891Y-110345265D01*
X152527109Y-110095829D01*
X152431855Y-109865297D01*
X152255631Y-109688765D01*
X152088655Y-109619431D01*
X151540101Y-109070877D01*
X159412981Y-109070877D01*
X159605433Y-109536647D01*
X159961479Y-109893314D01*
X160426912Y-110086580D01*
X160930877Y-110087019D01*
X161396647Y-109894567D01*
X161753314Y-109538521D01*
X161946580Y-109073088D01*
X161947019Y-108569123D01*
X161754567Y-108103353D01*
X161398521Y-107746686D01*
X160933088Y-107553420D01*
X160429123Y-107552981D01*
X159963353Y-107745433D01*
X159606686Y-108101479D01*
X159413420Y-108566912D01*
X159412981Y-109070877D01*
X151540101Y-109070877D01*
X150342000Y-107872776D01*
X150342000Y-107140000D01*
X150307594Y-106967027D01*
X150209612Y-106820388D01*
X150167011Y-106777787D01*
X150167109Y-106665829D01*
X150111348Y-106530877D01*
X159412981Y-106530877D01*
X159605433Y-106996647D01*
X159961479Y-107353314D01*
X160426912Y-107546580D01*
X160930877Y-107547019D01*
X161396647Y-107354567D01*
X161753314Y-106998521D01*
X161946580Y-106533088D01*
X161947019Y-106029123D01*
X161754567Y-105563353D01*
X161398521Y-105206686D01*
X160933088Y-105013420D01*
X160429123Y-105012981D01*
X159963353Y-105205433D01*
X159606686Y-105561479D01*
X159413420Y-106026912D01*
X159412981Y-106530877D01*
X150111348Y-106530877D01*
X150071855Y-106435297D01*
X149895631Y-106258765D01*
X149665265Y-106163109D01*
X149415829Y-106162891D01*
X149185297Y-106258145D01*
X149008765Y-106434369D01*
X148913109Y-106664735D01*
X148912891Y-106914171D01*
X147922000Y-106914171D01*
X147922000Y-103990877D01*
X159412981Y-103990877D01*
X159605433Y-104456647D01*
X159961479Y-104813314D01*
X160426912Y-105006580D01*
X160930877Y-105007019D01*
X161396647Y-104814567D01*
X161753314Y-104458521D01*
X161946580Y-103993088D01*
X161947019Y-103489123D01*
X161754567Y-103023353D01*
X161398521Y-102666686D01*
X160933088Y-102473420D01*
X160429123Y-102472981D01*
X159963353Y-102665433D01*
X159606686Y-103021479D01*
X159413420Y-103486912D01*
X159412981Y-103990877D01*
X147922000Y-103990877D01*
X147922000Y-102834171D01*
X150022891Y-102834171D01*
X150118145Y-103064703D01*
X150294369Y-103241235D01*
X150524735Y-103336891D01*
X150774171Y-103337109D01*
X151004703Y-103241855D01*
X151181235Y-103065631D01*
X151276891Y-102835265D01*
X151277109Y-102585829D01*
X151181855Y-102355297D01*
X151102000Y-102275302D01*
X151102000Y-101450877D01*
X159412981Y-101450877D01*
X159605433Y-101916647D01*
X159961479Y-102273314D01*
X160426912Y-102466580D01*
X160930877Y-102467019D01*
X161396647Y-102274567D01*
X161753314Y-101918521D01*
X161946580Y-101453088D01*
X161947019Y-100949123D01*
X161754567Y-100483353D01*
X161398521Y-100126686D01*
X160933088Y-99933420D01*
X160429123Y-99932981D01*
X159963353Y-100125433D01*
X159606686Y-100481479D01*
X159413420Y-100946912D01*
X159412981Y-101450877D01*
X151102000Y-101450877D01*
X151102000Y-99427224D01*
X151612213Y-98917011D01*
X151724171Y-98917109D01*
X151739253Y-98910877D01*
X159412981Y-98910877D01*
X159605433Y-99376647D01*
X159961479Y-99733314D01*
X160426912Y-99926580D01*
X160930877Y-99927019D01*
X161396647Y-99734567D01*
X161753314Y-99378521D01*
X161946580Y-98913088D01*
X161947019Y-98409123D01*
X161754567Y-97943353D01*
X161398521Y-97586686D01*
X160933088Y-97393420D01*
X160429123Y-97392981D01*
X159963353Y-97585433D01*
X159606686Y-97941479D01*
X159413420Y-98406912D01*
X159412981Y-98910877D01*
X151739253Y-98910877D01*
X151954703Y-98821855D01*
X152131235Y-98645631D01*
X152226891Y-98415265D01*
X152227109Y-98165829D01*
X152131855Y-97935297D01*
X151955631Y-97758765D01*
X151725265Y-97663109D01*
X151475829Y-97662891D01*
X151245297Y-97758145D01*
X151068765Y-97934369D01*
X150973109Y-98164735D01*
X150973010Y-98277766D01*
X150330388Y-98920388D01*
X150232406Y-99067027D01*
X150198000Y-99240000D01*
X150198000Y-102275272D01*
X150118765Y-102354369D01*
X150023109Y-102584735D01*
X150022891Y-102834171D01*
X147922000Y-102834171D01*
X147922000Y-100580000D01*
X147887594Y-100407027D01*
X147789613Y-100260388D01*
X146789612Y-99260388D01*
X146642973Y-99162406D01*
X146470000Y-99128000D01*
X140030000Y-99128000D01*
X139857027Y-99162406D01*
X139710388Y-99260388D01*
X137870388Y-101100388D01*
X137772406Y-101247027D01*
X137738000Y-101420000D01*
X137738000Y-111122776D01*
X137227787Y-111632989D01*
X137115829Y-111632891D01*
X136885297Y-111728145D01*
X136708765Y-111904369D01*
X136613109Y-112134735D01*
X136612891Y-112384171D01*
X135049280Y-112384171D01*
X134974567Y-112203353D01*
X134618521Y-111846686D01*
X134153088Y-111653420D01*
X133649123Y-111652981D01*
X133183353Y-111845433D01*
X132826686Y-112201479D01*
X132633420Y-112666912D01*
X132632981Y-113170877D01*
X129842000Y-113170877D01*
X129842000Y-110630877D01*
X132632981Y-110630877D01*
X132825433Y-111096647D01*
X133181479Y-111453314D01*
X133646912Y-111646580D01*
X134150877Y-111647019D01*
X134616647Y-111454567D01*
X134973314Y-111098521D01*
X135166580Y-110633088D01*
X135167019Y-110129123D01*
X134974567Y-109663353D01*
X134618521Y-109306686D01*
X134153088Y-109113420D01*
X133649123Y-109112981D01*
X133183353Y-109305433D01*
X132826686Y-109661479D01*
X132633420Y-110126912D01*
X132632981Y-110630877D01*
X129842000Y-110630877D01*
X129842000Y-108090877D01*
X132632981Y-108090877D01*
X132825433Y-108556647D01*
X133181479Y-108913314D01*
X133646912Y-109106580D01*
X134150877Y-109107019D01*
X134616647Y-108914567D01*
X134973314Y-108558521D01*
X135166580Y-108093088D01*
X135167019Y-107589123D01*
X134974567Y-107123353D01*
X134618521Y-106766686D01*
X134153088Y-106573420D01*
X133649123Y-106572981D01*
X133183353Y-106765433D01*
X132826686Y-107121479D01*
X132633420Y-107586912D01*
X132632981Y-108090877D01*
X129842000Y-108090877D01*
X129842000Y-105550877D01*
X132632981Y-105550877D01*
X132825433Y-106016647D01*
X133181479Y-106373314D01*
X133646912Y-106566580D01*
X134150877Y-106567019D01*
X134616647Y-106374567D01*
X134973314Y-106018521D01*
X135166580Y-105553088D01*
X135167019Y-105049123D01*
X134974567Y-104583353D01*
X134618521Y-104226686D01*
X134153088Y-104033420D01*
X133649123Y-104032981D01*
X133183353Y-104225433D01*
X132826686Y-104581479D01*
X132633420Y-105046912D01*
X132632981Y-105550877D01*
X129842000Y-105550877D01*
X129842000Y-103010877D01*
X132632981Y-103010877D01*
X132825433Y-103476647D01*
X133181479Y-103833314D01*
X133646912Y-104026580D01*
X134150877Y-104027019D01*
X134616647Y-103834567D01*
X134973314Y-103478521D01*
X135166580Y-103013088D01*
X135167019Y-102509123D01*
X134974567Y-102043353D01*
X134618521Y-101686686D01*
X134153088Y-101493420D01*
X133649123Y-101492981D01*
X133183353Y-101685433D01*
X132826686Y-102041479D01*
X132633420Y-102506912D01*
X132632981Y-103010877D01*
X129842000Y-103010877D01*
X129842000Y-100470877D01*
X132632981Y-100470877D01*
X132825433Y-100936647D01*
X133181479Y-101293314D01*
X133646912Y-101486580D01*
X134150877Y-101487019D01*
X134616647Y-101294567D01*
X134973314Y-100938521D01*
X135166580Y-100473088D01*
X135167019Y-99969123D01*
X134974567Y-99503353D01*
X134618521Y-99146686D01*
X134153088Y-98953420D01*
X133649123Y-98952981D01*
X133183353Y-99145433D01*
X132826686Y-99501479D01*
X132633420Y-99966912D01*
X132632981Y-100470877D01*
X129842000Y-100470877D01*
X129842000Y-97930877D01*
X132632981Y-97930877D01*
X132825433Y-98396647D01*
X133181479Y-98753314D01*
X133646912Y-98946580D01*
X134150877Y-98947019D01*
X134616647Y-98754567D01*
X134973314Y-98398521D01*
X135166580Y-97933088D01*
X135167019Y-97429123D01*
X134974567Y-96963353D01*
X134618521Y-96606686D01*
X134153088Y-96413420D01*
X133649123Y-96412981D01*
X133183353Y-96605433D01*
X132826686Y-96961479D01*
X132633420Y-97426912D01*
X132632981Y-97930877D01*
X129842000Y-97930877D01*
X129842000Y-96370877D01*
X159412981Y-96370877D01*
X159605433Y-96836647D01*
X159961479Y-97193314D01*
X160426912Y-97386580D01*
X160930877Y-97387019D01*
X161396647Y-97194567D01*
X161753314Y-96838521D01*
X161946580Y-96373088D01*
X161947019Y-95869123D01*
X161754567Y-95403353D01*
X161398521Y-95046686D01*
X160933088Y-94853420D01*
X160429123Y-94852981D01*
X159963353Y-95045433D01*
X159606686Y-95401479D01*
X159413420Y-95866912D01*
X159412981Y-96370877D01*
X129842000Y-96370877D01*
X129842000Y-91742000D01*
X163528000Y-91742000D01*
X163528000Y-129238000D01*
X163528000Y-129238000D01*
G37*
X163528000Y-129238000D02*
X129842000Y-129238000D01*
X129842000Y-127814171D01*
X150412891Y-127814171D01*
X150508145Y-128044703D01*
X150684369Y-128221235D01*
X150914735Y-128316891D01*
X151164171Y-128317109D01*
X151394703Y-128221855D01*
X151571235Y-128045631D01*
X151666891Y-127815265D01*
X151666990Y-127702234D01*
X152687224Y-126682000D01*
X155135272Y-126682000D01*
X155214369Y-126761235D01*
X155444735Y-126856891D01*
X155694171Y-126857109D01*
X155924703Y-126761855D01*
X156101235Y-126585631D01*
X156196891Y-126355265D01*
X156197109Y-126105829D01*
X156101855Y-125875297D01*
X155925631Y-125698765D01*
X155695265Y-125603109D01*
X155445829Y-125602891D01*
X155215297Y-125698145D01*
X155135302Y-125778000D01*
X152500000Y-125778000D01*
X152327027Y-125812406D01*
X152180388Y-125910388D01*
X151027787Y-127062989D01*
X150915829Y-127062891D01*
X150685297Y-127158145D01*
X150508765Y-127334369D01*
X150413109Y-127564735D01*
X150412891Y-127814171D01*
X129842000Y-127814171D01*
X129842000Y-124670877D01*
X140202981Y-124670877D01*
X140395433Y-125136647D01*
X140751479Y-125493314D01*
X141216912Y-125686580D01*
X141720877Y-125687019D01*
X142186647Y-125494567D01*
X142543314Y-125138521D01*
X142736580Y-124673088D01*
X142736581Y-124670877D01*
X142742981Y-124670877D01*
X142935433Y-125136647D01*
X143291479Y-125493314D01*
X143756912Y-125686580D01*
X144260877Y-125687019D01*
X144726647Y-125494567D01*
X145083314Y-125138521D01*
X145276580Y-124673088D01*
X145276581Y-124670877D01*
X145282981Y-124670877D01*
X145475433Y-125136647D01*
X145831479Y-125493314D01*
X146296912Y-125686580D01*
X146800877Y-125687019D01*
X147266647Y-125494567D01*
X147623314Y-125138521D01*
X147816580Y-124673088D01*
X147816581Y-124670877D01*
X147822981Y-124670877D01*
X148015433Y-125136647D01*
X148371479Y-125493314D01*
X148836912Y-125686580D01*
X149340877Y-125687019D01*
X149806647Y-125494567D01*
X150163314Y-125138521D01*
X150356580Y-124673088D01*
X150356581Y-124670877D01*
X150362981Y-124670877D01*
X150555433Y-125136647D01*
X150911479Y-125493314D01*
X151376912Y-125686580D01*
X151880877Y-125687019D01*
X152346647Y-125494567D01*
X152703314Y-125138521D01*
X152896580Y-124673088D01*
X152896581Y-124670877D01*
X152902981Y-124670877D01*
X153095433Y-125136647D01*
X153451479Y-125493314D01*
X153916912Y-125686580D01*
X154420877Y-125687019D01*
X154886647Y-125494567D01*
X155243314Y-125138521D01*
X155436580Y-124673088D01*
X155437019Y-124169123D01*
X155244567Y-123703353D01*
X154888521Y-123346686D01*
X154423088Y-123153420D01*
X153919123Y-123152981D01*
X153453353Y-123345433D01*
X153096686Y-123701479D01*
X152903420Y-124166912D01*
X152902981Y-124670877D01*
X152896581Y-124670877D01*
X152897019Y-124169123D01*
X152704567Y-123703353D01*
X152348521Y-123346686D01*
X151883088Y-123153420D01*
X151379123Y-123152981D01*
X150913353Y-123345433D01*
X150556686Y-123701479D01*
X150363420Y-124166912D01*
X150362981Y-124670877D01*
X150356581Y-124670877D01*
X150357019Y-124169123D01*
X150164567Y-123703353D01*
X149808521Y-123346686D01*
X149343088Y-123153420D01*
X148839123Y-123152981D01*
X148373353Y-123345433D01*
X148016686Y-123701479D01*
X147823420Y-124166912D01*
X147822981Y-124670877D01*
X147816581Y-124670877D01*
X147817019Y-124169123D01*
X147624567Y-123703353D01*
X147268521Y-123346686D01*
X146803088Y-123153420D01*
X146299123Y-123152981D01*
X145833353Y-123345433D01*
X145476686Y-123701479D01*
X145283420Y-124166912D01*
X145282981Y-124670877D01*
X145276581Y-124670877D01*
X145277019Y-124169123D01*
X145084567Y-123703353D01*
X144728521Y-123346686D01*
X144263088Y-123153420D01*
X143759123Y-123152981D01*
X143293353Y-123345433D01*
X142936686Y-123701479D01*
X142743420Y-124166912D01*
X142742981Y-124670877D01*
X142736581Y-124670877D01*
X142737019Y-124169123D01*
X142544567Y-123703353D01*
X142188521Y-123346686D01*
X141723088Y-123153420D01*
X141219123Y-123152981D01*
X140753353Y-123345433D01*
X140396686Y-123701479D01*
X140203420Y-124166912D01*
X140202981Y-124670877D01*
X129842000Y-124670877D01*
X129842000Y-122444171D01*
X140912891Y-122444171D01*
X141008145Y-122674703D01*
X141184369Y-122851235D01*
X141414735Y-122946891D01*
X141664171Y-122947109D01*
X141894703Y-122851855D01*
X142071235Y-122675631D01*
X142166891Y-122445265D01*
X142166990Y-122332234D01*
X142177224Y-122322000D01*
X152230000Y-122322000D01*
X152402973Y-122287594D01*
X152549612Y-122189612D01*
X154049612Y-120689613D01*
X154147594Y-120542973D01*
X154182000Y-120370000D01*
X154182000Y-119230877D01*
X159412981Y-119230877D01*
X159605433Y-119696647D01*
X159961479Y-120053314D01*
X160426912Y-120246580D01*
X160930877Y-120247019D01*
X161396647Y-120054567D01*
X161753314Y-119698521D01*
X161946580Y-119233088D01*
X161947019Y-118729123D01*
X161754567Y-118263353D01*
X161398521Y-117906686D01*
X160933088Y-117713420D01*
X160429123Y-117712981D01*
X159963353Y-117905433D01*
X159606686Y-118261479D01*
X159413420Y-118726912D01*
X159412981Y-119230877D01*
X154182000Y-119230877D01*
X154182000Y-116690877D01*
X159412981Y-116690877D01*
X159605433Y-117156647D01*
X159961479Y-117513314D01*
X160426912Y-117706580D01*
X160930877Y-117707019D01*
X161396647Y-117514567D01*
X161753314Y-117158521D01*
X161946580Y-116693088D01*
X161947019Y-116189123D01*
X161754567Y-115723353D01*
X161398521Y-115366686D01*
X160933088Y-115173420D01*
X160429123Y-115172981D01*
X159963353Y-115365433D01*
X159606686Y-115721479D01*
X159413420Y-116186912D01*
X159412981Y-116690877D01*
X154182000Y-116690877D01*
X154182000Y-115104728D01*
X154261235Y-115025631D01*
X154356891Y-114795265D01*
X154357109Y-114545829D01*
X154261855Y-114315297D01*
X154097722Y-114150877D01*
X159412981Y-114150877D01*
X159605433Y-114616647D01*
X159961479Y-114973314D01*
X160426912Y-115166580D01*
X160930877Y-115167019D01*
X161396647Y-114974567D01*
X161753314Y-114618521D01*
X161946580Y-114153088D01*
X161947019Y-113649123D01*
X161754567Y-113183353D01*
X161398521Y-112826686D01*
X160933088Y-112633420D01*
X160429123Y-112632981D01*
X159963353Y-112825433D01*
X159606686Y-113181479D01*
X159413420Y-113646912D01*
X159412981Y-114150877D01*
X154097722Y-114150877D01*
X154085631Y-114138765D01*
X153855265Y-114043109D01*
X153605829Y-114042891D01*
X153375297Y-114138145D01*
X153198765Y-114314369D01*
X153103109Y-114544735D01*
X153102891Y-114794171D01*
X153198145Y-115024703D01*
X153278000Y-115104698D01*
X153278000Y-120182775D01*
X152042776Y-121418000D01*
X144044232Y-121418000D01*
X144086891Y-121315265D01*
X144086990Y-121202234D01*
X150969613Y-114319612D01*
X151067594Y-114172973D01*
X151102000Y-114000000D01*
X151102000Y-111894728D01*
X151181235Y-111815631D01*
X151266256Y-111610877D01*
X159412981Y-111610877D01*
X159605433Y-112076647D01*
X159961479Y-112433314D01*
X160426912Y-112626580D01*
X160930877Y-112627019D01*
X161396647Y-112434567D01*
X161753314Y-112078521D01*
X161946580Y-111613088D01*
X161947019Y-111109123D01*
X161754567Y-110643353D01*
X161398521Y-110286686D01*
X160933088Y-110093420D01*
X160429123Y-110092981D01*
X159963353Y-110285433D01*
X159606686Y-110641479D01*
X159413420Y-111106912D01*
X159412981Y-111610877D01*
X151266256Y-111610877D01*
X151276891Y-111585265D01*
X151277109Y-111335829D01*
X151181855Y-111105297D01*
X151005631Y-110928765D01*
X150775265Y-110833109D01*
X150525829Y-110832891D01*
X150295297Y-110928145D01*
X150118765Y-111104369D01*
X150023109Y-111334735D01*
X150022891Y-111584171D01*
X150118145Y-111814703D01*
X150198000Y-111894698D01*
X150198000Y-113812775D01*
X145483381Y-118527394D01*
X145461855Y-118475297D01*
X145285631Y-118298765D01*
X145242000Y-118280648D01*
X145242000Y-117774745D01*
X145311235Y-117705631D01*
X145406891Y-117475265D01*
X145407109Y-117225829D01*
X145311855Y-116995297D01*
X145135631Y-116818765D01*
X144905265Y-116723109D01*
X144655829Y-116722891D01*
X144425297Y-116818145D01*
X144248765Y-116994369D01*
X144153109Y-117224735D01*
X144152891Y-117474171D01*
X144248145Y-117704703D01*
X144338000Y-117794715D01*
X144338000Y-118620708D01*
X144303109Y-118704735D01*
X144302891Y-118954171D01*
X144398145Y-119184703D01*
X144574369Y-119361235D01*
X144627485Y-119383291D01*
X143447787Y-120562989D01*
X143335829Y-120562891D01*
X143105297Y-120658145D01*
X142928765Y-120834369D01*
X142833109Y-121064735D01*
X142832891Y-121314171D01*
X142875792Y-121418000D01*
X141990000Y-121418000D01*
X141817027Y-121452406D01*
X141670388Y-121550388D01*
X141527787Y-121692989D01*
X141415829Y-121692891D01*
X141185297Y-121788145D01*
X141008765Y-121964369D01*
X140913109Y-122194735D01*
X140912891Y-122444171D01*
X129842000Y-122444171D01*
X129842000Y-120790877D01*
X132632981Y-120790877D01*
X132825433Y-121256647D01*
X133181479Y-121613314D01*
X133646912Y-121806580D01*
X134150877Y-121807019D01*
X134616647Y-121614567D01*
X134973314Y-121258521D01*
X135166580Y-120793088D01*
X135167019Y-120289123D01*
X134974567Y-119823353D01*
X134618521Y-119466686D01*
X134153088Y-119273420D01*
X133649123Y-119272981D01*
X133183353Y-119465433D01*
X132826686Y-119821479D01*
X132633420Y-120286912D01*
X132632981Y-120790877D01*
X129842000Y-120790877D01*
X129842000Y-118250877D01*
X132632981Y-118250877D01*
X132825433Y-118716647D01*
X133181479Y-119073314D01*
X133646912Y-119266580D01*
X134150877Y-119267019D01*
X134616647Y-119074567D01*
X134973314Y-118718521D01*
X135166580Y-118253088D01*
X135167019Y-117749123D01*
X134974567Y-117283353D01*
X134618521Y-116926686D01*
X134153088Y-116733420D01*
X133649123Y-116732981D01*
X133183353Y-116925433D01*
X132826686Y-117281479D01*
X132633420Y-117746912D01*
X132632981Y-118250877D01*
X129842000Y-118250877D01*
X129842000Y-115710877D01*
X132632981Y-115710877D01*
X132825433Y-116176647D01*
X133181479Y-116533314D01*
X133646912Y-116726580D01*
X134150877Y-116727019D01*
X134616647Y-116534567D01*
X134973314Y-116178521D01*
X135166580Y-115713088D01*
X135167019Y-115209123D01*
X134974567Y-114743353D01*
X134618521Y-114386686D01*
X134153088Y-114193420D01*
X133649123Y-114192981D01*
X133183353Y-114385433D01*
X132826686Y-114741479D01*
X132633420Y-115206912D01*
X132632981Y-115710877D01*
X129842000Y-115710877D01*
X129842000Y-113170877D01*
X132632981Y-113170877D01*
X132825433Y-113636647D01*
X133181479Y-113993314D01*
X133646912Y-114186580D01*
X134150877Y-114187019D01*
X134616647Y-113994567D01*
X134973314Y-113638521D01*
X135166580Y-113173088D01*
X135167019Y-112669123D01*
X135049280Y-112384171D01*
X136612891Y-112384171D01*
X136708145Y-112614703D01*
X136884369Y-112791235D01*
X137114735Y-112886891D01*
X137364171Y-112887109D01*
X137594703Y-112791855D01*
X137771235Y-112615631D01*
X137866891Y-112385265D01*
X137866990Y-112272234D01*
X138509612Y-111629612D01*
X138607594Y-111482973D01*
X138642000Y-111310000D01*
X138642000Y-102444171D01*
X140912891Y-102444171D01*
X141008145Y-102674703D01*
X141184369Y-102851235D01*
X141414735Y-102946891D01*
X141527766Y-102946990D01*
X145721967Y-107141191D01*
X145708765Y-107154369D01*
X145613109Y-107384735D01*
X145612891Y-107634171D01*
X145708145Y-107864703D01*
X145884369Y-108041235D01*
X146114735Y-108136891D01*
X146364171Y-108137109D01*
X146594703Y-108041855D01*
X146771235Y-107865631D01*
X146866891Y-107635265D01*
X146867109Y-107385829D01*
X146771855Y-107155297D01*
X146692000Y-107075302D01*
X146692000Y-107020000D01*
X146657594Y-106847027D01*
X146559612Y-106700388D01*
X142167011Y-102307787D01*
X142167109Y-102195829D01*
X142071855Y-101965297D01*
X141895631Y-101788765D01*
X141665265Y-101693109D01*
X141415829Y-101692891D01*
X141185297Y-101788145D01*
X141008765Y-101964369D01*
X140913109Y-102194735D01*
X140912891Y-102444171D01*
X138642000Y-102444171D01*
X138642000Y-101607224D01*
X140217224Y-100032000D01*
X146282776Y-100032000D01*
X147018000Y-100767225D01*
X147018000Y-107745272D01*
X146938765Y-107824369D01*
X146843109Y-108054735D01*
X146842891Y-108304171D01*
X146938145Y-108534703D01*
X147114369Y-108711235D01*
X147344735Y-108806891D01*
X147594171Y-108807109D01*
X147824703Y-108711855D01*
X147985125Y-108551713D01*
X148048000Y-108614698D01*
X148048000Y-109522776D01*
X143070388Y-114500388D01*
X142972406Y-114647027D01*
X142938000Y-114820000D01*
X142938000Y-117802776D01*
X142117787Y-118622989D01*
X142005829Y-118622891D01*
X141802000Y-118707112D01*
X141802000Y-118377224D01*
X142202213Y-117977011D01*
X142314171Y-117977109D01*
X142544703Y-117881855D01*
X142721235Y-117705631D01*
X142816891Y-117475265D01*
X142817109Y-117225829D01*
X142721855Y-116995297D01*
X142545631Y-116818765D01*
X142315265Y-116723109D01*
X142065829Y-116722891D01*
X141835297Y-116818145D01*
X141658765Y-116994369D01*
X141563109Y-117224735D01*
X141563010Y-117337765D01*
X141030388Y-117870388D01*
X140932406Y-118017027D01*
X140898000Y-118190000D01*
X140898000Y-118419159D01*
X140835265Y-118393109D01*
X140722234Y-118393010D01*
X140152000Y-117822776D01*
X140152000Y-115950000D01*
X140117594Y-115777027D01*
X140117594Y-115777026D01*
X140042000Y-115663893D01*
X140042000Y-105188822D01*
X140098145Y-105324703D01*
X140274369Y-105501235D01*
X140504735Y-105596891D01*
X140617766Y-105596990D01*
X142428000Y-107407225D01*
X142428000Y-110395272D01*
X142348765Y-110474369D01*
X142253109Y-110704735D01*
X142252891Y-110954171D01*
X142348145Y-111184703D01*
X142524369Y-111361235D01*
X142754735Y-111456891D01*
X143004171Y-111457109D01*
X143234703Y-111361855D01*
X143411235Y-111185631D01*
X143506891Y-110955265D01*
X143507109Y-110705829D01*
X143411855Y-110475297D01*
X143332000Y-110395302D01*
X143332000Y-107220000D01*
X143297594Y-107047027D01*
X143263931Y-106996647D01*
X143199613Y-106900388D01*
X141257011Y-104957787D01*
X141257109Y-104845829D01*
X141161855Y-104615297D01*
X140985631Y-104438765D01*
X140755265Y-104343109D01*
X140746123Y-104343101D01*
X140832213Y-104257011D01*
X140944171Y-104257109D01*
X141174703Y-104161855D01*
X141351235Y-103985631D01*
X141446891Y-103755265D01*
X141447109Y-103505829D01*
X141351855Y-103275297D01*
X141175631Y-103098765D01*
X140945265Y-103003109D01*
X140695829Y-103002891D01*
X140465297Y-103098145D01*
X140288765Y-103274369D01*
X140193109Y-103504735D01*
X140193010Y-103617766D01*
X139270388Y-104540388D01*
X139172406Y-104687027D01*
X139138000Y-104860000D01*
X139138000Y-115840000D01*
X139172406Y-116012973D01*
X139248000Y-116126106D01*
X139248000Y-118010000D01*
X139282406Y-118182973D01*
X139380388Y-118329612D01*
X140082989Y-119032213D01*
X140082891Y-119144171D01*
X140178145Y-119374703D01*
X140354369Y-119551235D01*
X140584735Y-119646891D01*
X140834171Y-119647109D01*
X140898000Y-119620735D01*
X140898000Y-120322776D01*
X140782776Y-120438000D01*
X139477224Y-120438000D01*
X138887011Y-119847787D01*
X138887109Y-119735829D01*
X138791855Y-119505297D01*
X138615631Y-119328765D01*
X138385265Y-119233109D01*
X138135829Y-119232891D01*
X137905297Y-119328145D01*
X137728765Y-119504369D01*
X137633109Y-119734735D01*
X137632891Y-119984171D01*
X137728145Y-120214703D01*
X137904369Y-120391235D01*
X138134735Y-120486891D01*
X138247766Y-120486990D01*
X138970388Y-121209612D01*
X139117027Y-121307594D01*
X139290000Y-121342000D01*
X140970000Y-121342000D01*
X141142973Y-121307594D01*
X141289612Y-121209612D01*
X141669612Y-120829612D01*
X141767594Y-120682973D01*
X141802000Y-120510000D01*
X141802000Y-119792708D01*
X142004735Y-119876891D01*
X142254171Y-119877109D01*
X142484703Y-119781855D01*
X142661235Y-119605631D01*
X142756891Y-119375265D01*
X142756990Y-119262234D01*
X143709612Y-118309612D01*
X143807594Y-118162973D01*
X143842000Y-117990000D01*
X143842000Y-115007224D01*
X148819612Y-110029612D01*
X148917594Y-109882973D01*
X148921110Y-109865297D01*
X148952000Y-109710000D01*
X148952000Y-108614728D01*
X149031235Y-108535631D01*
X149126891Y-108305265D01*
X149127109Y-108055829D01*
X149031855Y-107825297D01*
X148855631Y-107648765D01*
X148625265Y-107553109D01*
X148375829Y-107552891D01*
X148145297Y-107648145D01*
X147984875Y-107808287D01*
X147922000Y-107745302D01*
X147922000Y-106914171D01*
X148912891Y-106914171D01*
X149008145Y-107144703D01*
X149184369Y-107321235D01*
X149414735Y-107416891D01*
X149438000Y-107416911D01*
X149438000Y-108060000D01*
X149472406Y-108232973D01*
X149570388Y-108379612D01*
X151276748Y-110085972D01*
X151273109Y-110094735D01*
X151272891Y-110344171D01*
X151368145Y-110574703D01*
X151544369Y-110751235D01*
X151774735Y-110846891D01*
X152024171Y-110847109D01*
X152254703Y-110751855D01*
X152431235Y-110575631D01*
X152526891Y-110345265D01*
X152527109Y-110095829D01*
X152431855Y-109865297D01*
X152255631Y-109688765D01*
X152088655Y-109619431D01*
X151540101Y-109070877D01*
X159412981Y-109070877D01*
X159605433Y-109536647D01*
X159961479Y-109893314D01*
X160426912Y-110086580D01*
X160930877Y-110087019D01*
X161396647Y-109894567D01*
X161753314Y-109538521D01*
X161946580Y-109073088D01*
X161947019Y-108569123D01*
X161754567Y-108103353D01*
X161398521Y-107746686D01*
X160933088Y-107553420D01*
X160429123Y-107552981D01*
X159963353Y-107745433D01*
X159606686Y-108101479D01*
X159413420Y-108566912D01*
X159412981Y-109070877D01*
X151540101Y-109070877D01*
X150342000Y-107872776D01*
X150342000Y-107140000D01*
X150307594Y-106967027D01*
X150209612Y-106820388D01*
X150167011Y-106777787D01*
X150167109Y-106665829D01*
X150111348Y-106530877D01*
X159412981Y-106530877D01*
X159605433Y-106996647D01*
X159961479Y-107353314D01*
X160426912Y-107546580D01*
X160930877Y-107547019D01*
X161396647Y-107354567D01*
X161753314Y-106998521D01*
X161946580Y-106533088D01*
X161947019Y-106029123D01*
X161754567Y-105563353D01*
X161398521Y-105206686D01*
X160933088Y-105013420D01*
X160429123Y-105012981D01*
X159963353Y-105205433D01*
X159606686Y-105561479D01*
X159413420Y-106026912D01*
X159412981Y-106530877D01*
X150111348Y-106530877D01*
X150071855Y-106435297D01*
X149895631Y-106258765D01*
X149665265Y-106163109D01*
X149415829Y-106162891D01*
X149185297Y-106258145D01*
X149008765Y-106434369D01*
X148913109Y-106664735D01*
X148912891Y-106914171D01*
X147922000Y-106914171D01*
X147922000Y-103990877D01*
X159412981Y-103990877D01*
X159605433Y-104456647D01*
X159961479Y-104813314D01*
X160426912Y-105006580D01*
X160930877Y-105007019D01*
X161396647Y-104814567D01*
X161753314Y-104458521D01*
X161946580Y-103993088D01*
X161947019Y-103489123D01*
X161754567Y-103023353D01*
X161398521Y-102666686D01*
X160933088Y-102473420D01*
X160429123Y-102472981D01*
X159963353Y-102665433D01*
X159606686Y-103021479D01*
X159413420Y-103486912D01*
X159412981Y-103990877D01*
X147922000Y-103990877D01*
X147922000Y-102834171D01*
X150022891Y-102834171D01*
X150118145Y-103064703D01*
X150294369Y-103241235D01*
X150524735Y-103336891D01*
X150774171Y-103337109D01*
X151004703Y-103241855D01*
X151181235Y-103065631D01*
X151276891Y-102835265D01*
X151277109Y-102585829D01*
X151181855Y-102355297D01*
X151102000Y-102275302D01*
X151102000Y-101450877D01*
X159412981Y-101450877D01*
X159605433Y-101916647D01*
X159961479Y-102273314D01*
X160426912Y-102466580D01*
X160930877Y-102467019D01*
X161396647Y-102274567D01*
X161753314Y-101918521D01*
X161946580Y-101453088D01*
X161947019Y-100949123D01*
X161754567Y-100483353D01*
X161398521Y-100126686D01*
X160933088Y-99933420D01*
X160429123Y-99932981D01*
X159963353Y-100125433D01*
X159606686Y-100481479D01*
X159413420Y-100946912D01*
X159412981Y-101450877D01*
X151102000Y-101450877D01*
X151102000Y-99427224D01*
X151612213Y-98917011D01*
X151724171Y-98917109D01*
X151739253Y-98910877D01*
X159412981Y-98910877D01*
X159605433Y-99376647D01*
X159961479Y-99733314D01*
X160426912Y-99926580D01*
X160930877Y-99927019D01*
X161396647Y-99734567D01*
X161753314Y-99378521D01*
X161946580Y-98913088D01*
X161947019Y-98409123D01*
X161754567Y-97943353D01*
X161398521Y-97586686D01*
X160933088Y-97393420D01*
X160429123Y-97392981D01*
X159963353Y-97585433D01*
X159606686Y-97941479D01*
X159413420Y-98406912D01*
X159412981Y-98910877D01*
X151739253Y-98910877D01*
X151954703Y-98821855D01*
X152131235Y-98645631D01*
X152226891Y-98415265D01*
X152227109Y-98165829D01*
X152131855Y-97935297D01*
X151955631Y-97758765D01*
X151725265Y-97663109D01*
X151475829Y-97662891D01*
X151245297Y-97758145D01*
X151068765Y-97934369D01*
X150973109Y-98164735D01*
X150973010Y-98277766D01*
X150330388Y-98920388D01*
X150232406Y-99067027D01*
X150198000Y-99240000D01*
X150198000Y-102275272D01*
X150118765Y-102354369D01*
X150023109Y-102584735D01*
X150022891Y-102834171D01*
X147922000Y-102834171D01*
X147922000Y-100580000D01*
X147887594Y-100407027D01*
X147789613Y-100260388D01*
X146789612Y-99260388D01*
X146642973Y-99162406D01*
X146470000Y-99128000D01*
X140030000Y-99128000D01*
X139857027Y-99162406D01*
X139710388Y-99260388D01*
X137870388Y-101100388D01*
X137772406Y-101247027D01*
X137738000Y-101420000D01*
X137738000Y-111122776D01*
X137227787Y-111632989D01*
X137115829Y-111632891D01*
X136885297Y-111728145D01*
X136708765Y-111904369D01*
X136613109Y-112134735D01*
X136612891Y-112384171D01*
X135049280Y-112384171D01*
X134974567Y-112203353D01*
X134618521Y-111846686D01*
X134153088Y-111653420D01*
X133649123Y-111652981D01*
X133183353Y-111845433D01*
X132826686Y-112201479D01*
X132633420Y-112666912D01*
X132632981Y-113170877D01*
X129842000Y-113170877D01*
X129842000Y-110630877D01*
X132632981Y-110630877D01*
X132825433Y-111096647D01*
X133181479Y-111453314D01*
X133646912Y-111646580D01*
X134150877Y-111647019D01*
X134616647Y-111454567D01*
X134973314Y-111098521D01*
X135166580Y-110633088D01*
X135167019Y-110129123D01*
X134974567Y-109663353D01*
X134618521Y-109306686D01*
X134153088Y-109113420D01*
X133649123Y-109112981D01*
X133183353Y-109305433D01*
X132826686Y-109661479D01*
X132633420Y-110126912D01*
X132632981Y-110630877D01*
X129842000Y-110630877D01*
X129842000Y-108090877D01*
X132632981Y-108090877D01*
X132825433Y-108556647D01*
X133181479Y-108913314D01*
X133646912Y-109106580D01*
X134150877Y-109107019D01*
X134616647Y-108914567D01*
X134973314Y-108558521D01*
X135166580Y-108093088D01*
X135167019Y-107589123D01*
X134974567Y-107123353D01*
X134618521Y-106766686D01*
X134153088Y-106573420D01*
X133649123Y-106572981D01*
X133183353Y-106765433D01*
X132826686Y-107121479D01*
X132633420Y-107586912D01*
X132632981Y-108090877D01*
X129842000Y-108090877D01*
X129842000Y-105550877D01*
X132632981Y-105550877D01*
X132825433Y-106016647D01*
X133181479Y-106373314D01*
X133646912Y-106566580D01*
X134150877Y-106567019D01*
X134616647Y-106374567D01*
X134973314Y-106018521D01*
X135166580Y-105553088D01*
X135167019Y-105049123D01*
X134974567Y-104583353D01*
X134618521Y-104226686D01*
X134153088Y-104033420D01*
X133649123Y-104032981D01*
X133183353Y-104225433D01*
X132826686Y-104581479D01*
X132633420Y-105046912D01*
X132632981Y-105550877D01*
X129842000Y-105550877D01*
X129842000Y-103010877D01*
X132632981Y-103010877D01*
X132825433Y-103476647D01*
X133181479Y-103833314D01*
X133646912Y-104026580D01*
X134150877Y-104027019D01*
X134616647Y-103834567D01*
X134973314Y-103478521D01*
X135166580Y-103013088D01*
X135167019Y-102509123D01*
X134974567Y-102043353D01*
X134618521Y-101686686D01*
X134153088Y-101493420D01*
X133649123Y-101492981D01*
X133183353Y-101685433D01*
X132826686Y-102041479D01*
X132633420Y-102506912D01*
X132632981Y-103010877D01*
X129842000Y-103010877D01*
X129842000Y-100470877D01*
X132632981Y-100470877D01*
X132825433Y-100936647D01*
X133181479Y-101293314D01*
X133646912Y-101486580D01*
X134150877Y-101487019D01*
X134616647Y-101294567D01*
X134973314Y-100938521D01*
X135166580Y-100473088D01*
X135167019Y-99969123D01*
X134974567Y-99503353D01*
X134618521Y-99146686D01*
X134153088Y-98953420D01*
X133649123Y-98952981D01*
X133183353Y-99145433D01*
X132826686Y-99501479D01*
X132633420Y-99966912D01*
X132632981Y-100470877D01*
X129842000Y-100470877D01*
X129842000Y-97930877D01*
X132632981Y-97930877D01*
X132825433Y-98396647D01*
X133181479Y-98753314D01*
X133646912Y-98946580D01*
X134150877Y-98947019D01*
X134616647Y-98754567D01*
X134973314Y-98398521D01*
X135166580Y-97933088D01*
X135167019Y-97429123D01*
X134974567Y-96963353D01*
X134618521Y-96606686D01*
X134153088Y-96413420D01*
X133649123Y-96412981D01*
X133183353Y-96605433D01*
X132826686Y-96961479D01*
X132633420Y-97426912D01*
X132632981Y-97930877D01*
X129842000Y-97930877D01*
X129842000Y-96370877D01*
X159412981Y-96370877D01*
X159605433Y-96836647D01*
X159961479Y-97193314D01*
X160426912Y-97386580D01*
X160930877Y-97387019D01*
X161396647Y-97194567D01*
X161753314Y-96838521D01*
X161946580Y-96373088D01*
X161947019Y-95869123D01*
X161754567Y-95403353D01*
X161398521Y-95046686D01*
X160933088Y-94853420D01*
X160429123Y-94852981D01*
X159963353Y-95045433D01*
X159606686Y-95401479D01*
X159413420Y-95866912D01*
X159412981Y-96370877D01*
X129842000Y-96370877D01*
X129842000Y-91742000D01*
X163528000Y-91742000D01*
X163528000Y-129238000D01*
M02*
