G04 #@! TF.FileFunction,Legend,Top*
%FSLAX46Y46*%
G04 Gerber Fmt 4.6, Leading zero omitted, Abs format (unit mm)*
G04 Created by KiCad (PCBNEW 4.0.6) date 06/21/17 15:37:03*
%MOMM*%
%LPD*%
G01*
G04 APERTURE LIST*
%ADD10C,0.100000*%
%ADD11C,0.300000*%
%ADD12C,0.120000*%
%ADD13C,0.203200*%
%ADD14C,0.050000*%
%ADD15C,0.152400*%
%ADD16C,0.150000*%
%ADD17C,0.317500*%
%ADD18C,0.101600*%
%ADD19C,0.200000*%
G04 APERTURE END LIST*
D10*
D11*
X143140052Y-93367943D02*
X143354338Y-93439371D01*
X143711481Y-93439371D01*
X143854338Y-93367943D01*
X143925767Y-93296514D01*
X143997195Y-93153657D01*
X143997195Y-93010800D01*
X143925767Y-92867943D01*
X143854338Y-92796514D01*
X143711481Y-92725086D01*
X143425767Y-92653657D01*
X143282909Y-92582229D01*
X143211481Y-92510800D01*
X143140052Y-92367943D01*
X143140052Y-92225086D01*
X143211481Y-92082229D01*
X143282909Y-92010800D01*
X143425767Y-91939371D01*
X143782909Y-91939371D01*
X143997195Y-92010800D01*
X144640052Y-93439371D02*
X144640052Y-91939371D01*
X145211480Y-91939371D01*
X145354338Y-92010800D01*
X145425766Y-92082229D01*
X145497195Y-92225086D01*
X145497195Y-92439371D01*
X145425766Y-92582229D01*
X145354338Y-92653657D01*
X145211480Y-92725086D01*
X144640052Y-92725086D01*
X146068623Y-93010800D02*
X146782909Y-93010800D01*
X145925766Y-93439371D02*
X146425766Y-91939371D01*
X146925766Y-93439371D01*
X148282909Y-93439371D02*
X147782909Y-92725086D01*
X147425766Y-93439371D02*
X147425766Y-91939371D01*
X147997194Y-91939371D01*
X148140052Y-92010800D01*
X148211480Y-92082229D01*
X148282909Y-92225086D01*
X148282909Y-92439371D01*
X148211480Y-92582229D01*
X148140052Y-92653657D01*
X147997194Y-92725086D01*
X147425766Y-92725086D01*
X148925766Y-93439371D02*
X148925766Y-91939371D01*
X149782909Y-93439371D02*
X149140052Y-92582229D01*
X149782909Y-91939371D02*
X148925766Y-92796514D01*
D12*
X140300000Y-107910000D02*
X140300000Y-106870000D01*
X140300000Y-106870000D02*
X142400000Y-106870000D01*
X142400000Y-106870000D02*
X142400000Y-107900000D01*
X140300000Y-112170000D02*
X140300000Y-107920000D01*
X142400000Y-112170000D02*
X142400000Y-107920000D01*
X140300000Y-112170000D02*
X142400000Y-112170000D01*
X144560000Y-114320000D02*
X145600000Y-114320000D01*
X145600000Y-114320000D02*
X145600000Y-116420000D01*
X145600000Y-116420000D02*
X144570000Y-116420000D01*
X140300000Y-114320000D02*
X144550000Y-114320000D01*
X140300000Y-116420000D02*
X144550000Y-116420000D01*
X140300000Y-114320000D02*
X140300000Y-116420000D01*
X147210000Y-114270000D02*
X147210000Y-114970000D01*
X146010000Y-114970000D02*
X146010000Y-114270000D01*
X154230000Y-113210000D02*
X153530000Y-113210000D01*
X153530000Y-112010000D02*
X154230000Y-112010000D01*
X142330000Y-105160000D02*
X142330000Y-105860000D01*
X141130000Y-105860000D02*
X141130000Y-105160000D01*
X153320000Y-97190000D02*
X154020000Y-97190000D01*
X154020000Y-98390000D02*
X153320000Y-98390000D01*
X147470000Y-117740000D02*
X146770000Y-117740000D01*
X146770000Y-116540000D02*
X147470000Y-116540000D01*
D13*
X152900000Y-123785000D02*
X153535000Y-123150000D01*
X153535000Y-123150000D02*
X154805000Y-123150000D01*
X154805000Y-123150000D02*
X155440000Y-123785000D01*
X155440000Y-125055000D02*
X154805000Y-125690000D01*
X154805000Y-125690000D02*
X153535000Y-125690000D01*
X153535000Y-125690000D02*
X152900000Y-125055000D01*
X148455000Y-123150000D02*
X149725000Y-123150000D01*
X149725000Y-123150000D02*
X150360000Y-123785000D01*
X150360000Y-125055000D02*
X149725000Y-125690000D01*
X150360000Y-123785000D02*
X150995000Y-123150000D01*
X150995000Y-123150000D02*
X152265000Y-123150000D01*
X152265000Y-123150000D02*
X152900000Y-123785000D01*
X152900000Y-125055000D02*
X152265000Y-125690000D01*
X152265000Y-125690000D02*
X150995000Y-125690000D01*
X150995000Y-125690000D02*
X150360000Y-125055000D01*
X145280000Y-123785000D02*
X145915000Y-123150000D01*
X145915000Y-123150000D02*
X147185000Y-123150000D01*
X147185000Y-123150000D02*
X147820000Y-123785000D01*
X147820000Y-125055000D02*
X147185000Y-125690000D01*
X147185000Y-125690000D02*
X145915000Y-125690000D01*
X145915000Y-125690000D02*
X145280000Y-125055000D01*
X148455000Y-123150000D02*
X147820000Y-123785000D01*
X147820000Y-125055000D02*
X148455000Y-125690000D01*
X149725000Y-125690000D02*
X148455000Y-125690000D01*
X140835000Y-123150000D02*
X142105000Y-123150000D01*
X142105000Y-123150000D02*
X142740000Y-123785000D01*
X142740000Y-125055000D02*
X142105000Y-125690000D01*
X142740000Y-123785000D02*
X143375000Y-123150000D01*
X143375000Y-123150000D02*
X144645000Y-123150000D01*
X144645000Y-123150000D02*
X145280000Y-123785000D01*
X145280000Y-125055000D02*
X144645000Y-125690000D01*
X144645000Y-125690000D02*
X143375000Y-125690000D01*
X143375000Y-125690000D02*
X142740000Y-125055000D01*
X140200000Y-123785000D02*
X140200000Y-125055000D01*
X140835000Y-123150000D02*
X140200000Y-123785000D01*
X140200000Y-125055000D02*
X140835000Y-125690000D01*
X142105000Y-125690000D02*
X140835000Y-125690000D01*
X155440000Y-123785000D02*
X155440000Y-125055000D01*
X159410000Y-104375000D02*
X159410000Y-103105000D01*
X159410000Y-103105000D02*
X160045000Y-102470000D01*
X161315000Y-102470000D02*
X161950000Y-103105000D01*
X160045000Y-107550000D02*
X159410000Y-106915000D01*
X159410000Y-106915000D02*
X159410000Y-105645000D01*
X159410000Y-105645000D02*
X160045000Y-105010000D01*
X161315000Y-105010000D02*
X161950000Y-105645000D01*
X161950000Y-105645000D02*
X161950000Y-106915000D01*
X161950000Y-106915000D02*
X161315000Y-107550000D01*
X159410000Y-104375000D02*
X160045000Y-105010000D01*
X161315000Y-105010000D02*
X161950000Y-104375000D01*
X161950000Y-103105000D02*
X161950000Y-104375000D01*
X159410000Y-111995000D02*
X159410000Y-110725000D01*
X159410000Y-110725000D02*
X160045000Y-110090000D01*
X161315000Y-110090000D02*
X161950000Y-110725000D01*
X160045000Y-110090000D02*
X159410000Y-109455000D01*
X159410000Y-109455000D02*
X159410000Y-108185000D01*
X159410000Y-108185000D02*
X160045000Y-107550000D01*
X161315000Y-107550000D02*
X161950000Y-108185000D01*
X161950000Y-108185000D02*
X161950000Y-109455000D01*
X161950000Y-109455000D02*
X161315000Y-110090000D01*
X160045000Y-115170000D02*
X159410000Y-114535000D01*
X159410000Y-114535000D02*
X159410000Y-113265000D01*
X159410000Y-113265000D02*
X160045000Y-112630000D01*
X161315000Y-112630000D02*
X161950000Y-113265000D01*
X161950000Y-113265000D02*
X161950000Y-114535000D01*
X161950000Y-114535000D02*
X161315000Y-115170000D01*
X159410000Y-111995000D02*
X160045000Y-112630000D01*
X161315000Y-112630000D02*
X161950000Y-111995000D01*
X161950000Y-110725000D02*
X161950000Y-111995000D01*
X159410000Y-119615000D02*
X159410000Y-118345000D01*
X159410000Y-118345000D02*
X160045000Y-117710000D01*
X161315000Y-117710000D02*
X161950000Y-118345000D01*
X160045000Y-117710000D02*
X159410000Y-117075000D01*
X159410000Y-117075000D02*
X159410000Y-115805000D01*
X159410000Y-115805000D02*
X160045000Y-115170000D01*
X161315000Y-115170000D02*
X161950000Y-115805000D01*
X161950000Y-115805000D02*
X161950000Y-117075000D01*
X161950000Y-117075000D02*
X161315000Y-117710000D01*
X160045000Y-120250000D02*
X161315000Y-120250000D01*
X159410000Y-119615000D02*
X160045000Y-120250000D01*
X161315000Y-120250000D02*
X161950000Y-119615000D01*
X161950000Y-118345000D02*
X161950000Y-119615000D01*
X159410000Y-101835000D02*
X159410000Y-100565000D01*
X159410000Y-100565000D02*
X160045000Y-99930000D01*
X161315000Y-99930000D02*
X161950000Y-100565000D01*
X159410000Y-101835000D02*
X160045000Y-102470000D01*
X161315000Y-102470000D02*
X161950000Y-101835000D01*
X161950000Y-100565000D02*
X161950000Y-101835000D01*
X159410000Y-99295000D02*
X159410000Y-98025000D01*
X159410000Y-98025000D02*
X160045000Y-97390000D01*
X161315000Y-97390000D02*
X161950000Y-98025000D01*
X159410000Y-99295000D02*
X160045000Y-99930000D01*
X161315000Y-99930000D02*
X161950000Y-99295000D01*
X161950000Y-98025000D02*
X161950000Y-99295000D01*
X159410000Y-96755000D02*
X159410000Y-95485000D01*
X159410000Y-95485000D02*
X160045000Y-94850000D01*
X160045000Y-94850000D02*
X161315000Y-94850000D01*
X161315000Y-94850000D02*
X161950000Y-95485000D01*
X159410000Y-96755000D02*
X160045000Y-97390000D01*
X161315000Y-97390000D02*
X161950000Y-96755000D01*
X161950000Y-95485000D02*
X161950000Y-96755000D01*
X132630000Y-105935000D02*
X132630000Y-104665000D01*
X132630000Y-104665000D02*
X133265000Y-104030000D01*
X134535000Y-104030000D02*
X135170000Y-104665000D01*
X133265000Y-109110000D02*
X132630000Y-108475000D01*
X132630000Y-108475000D02*
X132630000Y-107205000D01*
X132630000Y-107205000D02*
X133265000Y-106570000D01*
X134535000Y-106570000D02*
X135170000Y-107205000D01*
X135170000Y-107205000D02*
X135170000Y-108475000D01*
X135170000Y-108475000D02*
X134535000Y-109110000D01*
X132630000Y-105935000D02*
X133265000Y-106570000D01*
X134535000Y-106570000D02*
X135170000Y-105935000D01*
X135170000Y-104665000D02*
X135170000Y-105935000D01*
X132630000Y-113555000D02*
X132630000Y-112285000D01*
X132630000Y-112285000D02*
X133265000Y-111650000D01*
X134535000Y-111650000D02*
X135170000Y-112285000D01*
X133265000Y-111650000D02*
X132630000Y-111015000D01*
X132630000Y-111015000D02*
X132630000Y-109745000D01*
X132630000Y-109745000D02*
X133265000Y-109110000D01*
X134535000Y-109110000D02*
X135170000Y-109745000D01*
X135170000Y-109745000D02*
X135170000Y-111015000D01*
X135170000Y-111015000D02*
X134535000Y-111650000D01*
X133265000Y-116730000D02*
X132630000Y-116095000D01*
X132630000Y-116095000D02*
X132630000Y-114825000D01*
X132630000Y-114825000D02*
X133265000Y-114190000D01*
X134535000Y-114190000D02*
X135170000Y-114825000D01*
X135170000Y-114825000D02*
X135170000Y-116095000D01*
X135170000Y-116095000D02*
X134535000Y-116730000D01*
X132630000Y-113555000D02*
X133265000Y-114190000D01*
X134535000Y-114190000D02*
X135170000Y-113555000D01*
X135170000Y-112285000D02*
X135170000Y-113555000D01*
X132630000Y-121175000D02*
X132630000Y-119905000D01*
X132630000Y-119905000D02*
X133265000Y-119270000D01*
X134535000Y-119270000D02*
X135170000Y-119905000D01*
X133265000Y-119270000D02*
X132630000Y-118635000D01*
X132630000Y-118635000D02*
X132630000Y-117365000D01*
X132630000Y-117365000D02*
X133265000Y-116730000D01*
X134535000Y-116730000D02*
X135170000Y-117365000D01*
X135170000Y-117365000D02*
X135170000Y-118635000D01*
X135170000Y-118635000D02*
X134535000Y-119270000D01*
X133265000Y-121810000D02*
X134535000Y-121810000D01*
X132630000Y-121175000D02*
X133265000Y-121810000D01*
X134535000Y-121810000D02*
X135170000Y-121175000D01*
X135170000Y-119905000D02*
X135170000Y-121175000D01*
X132630000Y-103395000D02*
X132630000Y-102125000D01*
X132630000Y-102125000D02*
X133265000Y-101490000D01*
X134535000Y-101490000D02*
X135170000Y-102125000D01*
X132630000Y-103395000D02*
X133265000Y-104030000D01*
X134535000Y-104030000D02*
X135170000Y-103395000D01*
X135170000Y-102125000D02*
X135170000Y-103395000D01*
X132630000Y-100855000D02*
X132630000Y-99585000D01*
X132630000Y-99585000D02*
X133265000Y-98950000D01*
X134535000Y-98950000D02*
X135170000Y-99585000D01*
X132630000Y-100855000D02*
X133265000Y-101490000D01*
X134535000Y-101490000D02*
X135170000Y-100855000D01*
X135170000Y-99585000D02*
X135170000Y-100855000D01*
X132630000Y-98315000D02*
X132630000Y-97045000D01*
X132630000Y-97045000D02*
X133265000Y-96410000D01*
X133265000Y-96410000D02*
X134535000Y-96410000D01*
X134535000Y-96410000D02*
X135170000Y-97045000D01*
X132630000Y-98315000D02*
X133265000Y-98950000D01*
X134535000Y-98950000D02*
X135170000Y-98315000D01*
X135170000Y-97045000D02*
X135170000Y-98315000D01*
D12*
X149910000Y-116100000D02*
X149910000Y-117100000D01*
X148550000Y-117100000D02*
X148550000Y-116100000D01*
X149790000Y-111540000D02*
X149790000Y-112540000D01*
X148430000Y-112540000D02*
X148430000Y-111540000D01*
X147340000Y-111510000D02*
X147340000Y-112510000D01*
X145980000Y-112510000D02*
X145980000Y-111510000D01*
X148490000Y-111540000D02*
X148490000Y-112540000D01*
X147130000Y-112540000D02*
X147130000Y-111540000D01*
D14*
X151530000Y-116150000D02*
X152010000Y-116150000D01*
X151530000Y-115970000D02*
X152000000Y-115970000D01*
X151520000Y-116060000D02*
X152010000Y-116060000D01*
X151520000Y-117560000D02*
X151520000Y-114570000D01*
X151520000Y-114570000D02*
X152010000Y-114570000D01*
X152010000Y-114570000D02*
X152020000Y-117570000D01*
X152020000Y-117570000D02*
X151520000Y-117570000D01*
X152210000Y-113450000D02*
X152960000Y-113450000D01*
X152960000Y-113450000D02*
X152960000Y-118680000D01*
X152960000Y-118680000D02*
X152220000Y-118680000D01*
X150500000Y-113370000D02*
X151330000Y-113370000D01*
X151290000Y-118700000D02*
X150570000Y-118700000D01*
X150570000Y-118700000D02*
X150570000Y-113450000D01*
X150570000Y-113450000D02*
X151330000Y-113450000D01*
X151280000Y-118760000D02*
X150510000Y-118760000D01*
X150510000Y-118760000D02*
X150500000Y-113370000D01*
X153030000Y-118760000D02*
X152210000Y-118760000D01*
X153030000Y-118760000D02*
X153040000Y-113370000D01*
X153040000Y-113370000D02*
X152220000Y-113370000D01*
X149490000Y-121310000D02*
X145870000Y-121310000D01*
X145870000Y-121310000D02*
X145880000Y-118090000D01*
X145880000Y-118090000D02*
X149470000Y-118100000D01*
X149470000Y-118100000D02*
X149470000Y-121290000D01*
X149510000Y-121290000D02*
X149510000Y-121350000D01*
X149510000Y-121350000D02*
X145850000Y-121340000D01*
X149510000Y-121300000D02*
X149500000Y-118080000D01*
X149500000Y-118080000D02*
X148550000Y-118070000D01*
X148550000Y-118070000D02*
X145850000Y-118070000D01*
X145850000Y-118070000D02*
X145850000Y-121310000D01*
D15*
X144327340Y-109042660D02*
X144327340Y-102037340D01*
X144327340Y-102037340D02*
X151332660Y-102037340D01*
X151332660Y-102037340D02*
X151332660Y-108689600D01*
X150979600Y-109042660D02*
X144327340Y-109042660D01*
X150979600Y-109042660D02*
X151332660Y-108689600D01*
X150931340Y-108283200D02*
G75*
G03X150931340Y-108283200I-358140J0D01*
G01*
D13*
X154482300Y-101241680D02*
X155777700Y-101241680D01*
X155777700Y-104838320D02*
X154482300Y-104838320D01*
D16*
X139157143Y-109686666D02*
X139204762Y-109734285D01*
X139252381Y-109877142D01*
X139252381Y-109972380D01*
X139204762Y-110115238D01*
X139109524Y-110210476D01*
X139014286Y-110258095D01*
X138823810Y-110305714D01*
X138680952Y-110305714D01*
X138490476Y-110258095D01*
X138395238Y-110210476D01*
X138300000Y-110115238D01*
X138252381Y-109972380D01*
X138252381Y-109877142D01*
X138300000Y-109734285D01*
X138347619Y-109686666D01*
X139252381Y-108734285D02*
X139252381Y-109305714D01*
X139252381Y-109020000D02*
X138252381Y-109020000D01*
X138395238Y-109115238D01*
X138490476Y-109210476D01*
X138538095Y-109305714D01*
X144352381Y-110591428D02*
X144352381Y-111162857D01*
X144352381Y-110877143D02*
X143352381Y-110877143D01*
X143495238Y-110972381D01*
X143590476Y-111067619D01*
X143638095Y-111162857D01*
X143352381Y-109972381D02*
X143352381Y-109877142D01*
X143400000Y-109781904D01*
X143447619Y-109734285D01*
X143542857Y-109686666D01*
X143733333Y-109639047D01*
X143971429Y-109639047D01*
X144161905Y-109686666D01*
X144257143Y-109734285D01*
X144304762Y-109781904D01*
X144352381Y-109877142D01*
X144352381Y-109972381D01*
X144304762Y-110067619D01*
X144257143Y-110115238D01*
X144161905Y-110162857D01*
X143971429Y-110210476D01*
X143733333Y-110210476D01*
X143542857Y-110162857D01*
X143447619Y-110115238D01*
X143400000Y-110067619D01*
X143352381Y-109972381D01*
X143685714Y-108781904D02*
X144352381Y-108781904D01*
X143685714Y-109210476D02*
X144209524Y-109210476D01*
X144304762Y-109162857D01*
X144352381Y-109067619D01*
X144352381Y-108924761D01*
X144304762Y-108829523D01*
X144257143Y-108781904D01*
X143828571Y-107972380D02*
X143828571Y-108305714D01*
X144352381Y-108305714D02*
X143352381Y-108305714D01*
X143352381Y-107829523D01*
X142783334Y-113177143D02*
X142735715Y-113224762D01*
X142592858Y-113272381D01*
X142497620Y-113272381D01*
X142354762Y-113224762D01*
X142259524Y-113129524D01*
X142211905Y-113034286D01*
X142164286Y-112843810D01*
X142164286Y-112700952D01*
X142211905Y-112510476D01*
X142259524Y-112415238D01*
X142354762Y-112320000D01*
X142497620Y-112272381D01*
X142592858Y-112272381D01*
X142735715Y-112320000D01*
X142783334Y-112367619D01*
X143164286Y-112367619D02*
X143211905Y-112320000D01*
X143307143Y-112272381D01*
X143545239Y-112272381D01*
X143640477Y-112320000D01*
X143688096Y-112367619D01*
X143735715Y-112462857D01*
X143735715Y-112558095D01*
X143688096Y-112700952D01*
X143116667Y-113272381D01*
X143735715Y-113272381D01*
X141878572Y-118372381D02*
X141307143Y-118372381D01*
X141592857Y-118372381D02*
X141592857Y-117372381D01*
X141497619Y-117515238D01*
X141402381Y-117610476D01*
X141307143Y-117658095D01*
X142497619Y-117372381D02*
X142592858Y-117372381D01*
X142688096Y-117420000D01*
X142735715Y-117467619D01*
X142783334Y-117562857D01*
X142830953Y-117753333D01*
X142830953Y-117991429D01*
X142783334Y-118181905D01*
X142735715Y-118277143D01*
X142688096Y-118324762D01*
X142592858Y-118372381D01*
X142497619Y-118372381D01*
X142402381Y-118324762D01*
X142354762Y-118277143D01*
X142307143Y-118181905D01*
X142259524Y-117991429D01*
X142259524Y-117753333D01*
X142307143Y-117562857D01*
X142354762Y-117467619D01*
X142402381Y-117420000D01*
X142497619Y-117372381D01*
X143688096Y-117705714D02*
X143688096Y-118372381D01*
X143259524Y-117705714D02*
X143259524Y-118229524D01*
X143307143Y-118324762D01*
X143402381Y-118372381D01*
X143545239Y-118372381D01*
X143640477Y-118324762D01*
X143688096Y-118277143D01*
X144497620Y-117848571D02*
X144164286Y-117848571D01*
X144164286Y-118372381D02*
X144164286Y-117372381D01*
X144640477Y-117372381D01*
X148467143Y-114786666D02*
X148514762Y-114834285D01*
X148562381Y-114977142D01*
X148562381Y-115072380D01*
X148514762Y-115215238D01*
X148419524Y-115310476D01*
X148324286Y-115358095D01*
X148133810Y-115405714D01*
X147990952Y-115405714D01*
X147800476Y-115358095D01*
X147705238Y-115310476D01*
X147610000Y-115215238D01*
X147562381Y-115072380D01*
X147562381Y-114977142D01*
X147610000Y-114834285D01*
X147657619Y-114786666D01*
X147562381Y-114453333D02*
X147562381Y-113834285D01*
X147943333Y-114167619D01*
X147943333Y-114024761D01*
X147990952Y-113929523D01*
X148038571Y-113881904D01*
X148133810Y-113834285D01*
X148371905Y-113834285D01*
X148467143Y-113881904D01*
X148514762Y-113929523D01*
X148562381Y-114024761D01*
X148562381Y-114310476D01*
X148514762Y-114405714D01*
X148467143Y-114453333D01*
X144562381Y-116262857D02*
X144562381Y-116167618D01*
X144610000Y-116072380D01*
X144657619Y-116024761D01*
X144752857Y-115977142D01*
X144943333Y-115929523D01*
X145181429Y-115929523D01*
X145371905Y-115977142D01*
X145467143Y-116024761D01*
X145514762Y-116072380D01*
X145562381Y-116167618D01*
X145562381Y-116262857D01*
X145514762Y-116358095D01*
X145467143Y-116405714D01*
X145371905Y-116453333D01*
X145181429Y-116500952D01*
X144943333Y-116500952D01*
X144752857Y-116453333D01*
X144657619Y-116405714D01*
X144610000Y-116358095D01*
X144562381Y-116262857D01*
X145467143Y-115500952D02*
X145514762Y-115453333D01*
X145562381Y-115500952D01*
X145514762Y-115548571D01*
X145467143Y-115500952D01*
X145562381Y-115500952D01*
X145562381Y-114500952D02*
X145562381Y-115072381D01*
X145562381Y-114786667D02*
X144562381Y-114786667D01*
X144705238Y-114881905D01*
X144800476Y-114977143D01*
X144848095Y-115072381D01*
X144895714Y-113643809D02*
X145562381Y-113643809D01*
X144895714Y-114072381D02*
X145419524Y-114072381D01*
X145514762Y-114024762D01*
X145562381Y-113929524D01*
X145562381Y-113786666D01*
X145514762Y-113691428D01*
X145467143Y-113643809D01*
X145038571Y-112834285D02*
X145038571Y-113167619D01*
X145562381Y-113167619D02*
X144562381Y-113167619D01*
X144562381Y-112691428D01*
X153713334Y-114467143D02*
X153665715Y-114514762D01*
X153522858Y-114562381D01*
X153427620Y-114562381D01*
X153284762Y-114514762D01*
X153189524Y-114419524D01*
X153141905Y-114324286D01*
X153094286Y-114133810D01*
X153094286Y-113990952D01*
X153141905Y-113800476D01*
X153189524Y-113705238D01*
X153284762Y-113610000D01*
X153427620Y-113562381D01*
X153522858Y-113562381D01*
X153665715Y-113610000D01*
X153713334Y-113657619D01*
X154618096Y-113562381D02*
X154141905Y-113562381D01*
X154094286Y-114038571D01*
X154141905Y-113990952D01*
X154237143Y-113943333D01*
X154475239Y-113943333D01*
X154570477Y-113990952D01*
X154618096Y-114038571D01*
X154665715Y-114133810D01*
X154665715Y-114371905D01*
X154618096Y-114467143D01*
X154570477Y-114514762D01*
X154475239Y-114562381D01*
X154237143Y-114562381D01*
X154141905Y-114514762D01*
X154094286Y-114467143D01*
X152237143Y-110562381D02*
X152332382Y-110562381D01*
X152427620Y-110610000D01*
X152475239Y-110657619D01*
X152522858Y-110752857D01*
X152570477Y-110943333D01*
X152570477Y-111181429D01*
X152522858Y-111371905D01*
X152475239Y-111467143D01*
X152427620Y-111514762D01*
X152332382Y-111562381D01*
X152237143Y-111562381D01*
X152141905Y-111514762D01*
X152094286Y-111467143D01*
X152046667Y-111371905D01*
X151999048Y-111181429D01*
X151999048Y-110943333D01*
X152046667Y-110752857D01*
X152094286Y-110657619D01*
X152141905Y-110610000D01*
X152237143Y-110562381D01*
X152999048Y-111467143D02*
X153046667Y-111514762D01*
X152999048Y-111562381D01*
X152951429Y-111514762D01*
X152999048Y-111467143D01*
X152999048Y-111562381D01*
X153999048Y-111562381D02*
X153427619Y-111562381D01*
X153713333Y-111562381D02*
X153713333Y-110562381D01*
X153618095Y-110705238D01*
X153522857Y-110800476D01*
X153427619Y-110848095D01*
X154856191Y-110895714D02*
X154856191Y-111562381D01*
X154427619Y-110895714D02*
X154427619Y-111419524D01*
X154475238Y-111514762D01*
X154570476Y-111562381D01*
X154713334Y-111562381D01*
X154808572Y-111514762D01*
X154856191Y-111467143D01*
X155665715Y-111038571D02*
X155332381Y-111038571D01*
X155332381Y-111562381D02*
X155332381Y-110562381D01*
X155808572Y-110562381D01*
X143587143Y-105676666D02*
X143634762Y-105724285D01*
X143682381Y-105867142D01*
X143682381Y-105962380D01*
X143634762Y-106105238D01*
X143539524Y-106200476D01*
X143444286Y-106248095D01*
X143253810Y-106295714D01*
X143110952Y-106295714D01*
X142920476Y-106248095D01*
X142825238Y-106200476D01*
X142730000Y-106105238D01*
X142682381Y-105962380D01*
X142682381Y-105867142D01*
X142730000Y-105724285D01*
X142777619Y-105676666D01*
X142682381Y-104819523D02*
X142682381Y-105010000D01*
X142730000Y-105105238D01*
X142777619Y-105152857D01*
X142920476Y-105248095D01*
X143110952Y-105295714D01*
X143491905Y-105295714D01*
X143587143Y-105248095D01*
X143634762Y-105200476D01*
X143682381Y-105105238D01*
X143682381Y-104914761D01*
X143634762Y-104819523D01*
X143587143Y-104771904D01*
X143491905Y-104724285D01*
X143253810Y-104724285D01*
X143158571Y-104771904D01*
X143110952Y-104819523D01*
X143063333Y-104914761D01*
X143063333Y-105105238D01*
X143110952Y-105200476D01*
X143158571Y-105248095D01*
X143253810Y-105295714D01*
X139682381Y-107152857D02*
X139682381Y-107057618D01*
X139730000Y-106962380D01*
X139777619Y-106914761D01*
X139872857Y-106867142D01*
X140063333Y-106819523D01*
X140301429Y-106819523D01*
X140491905Y-106867142D01*
X140587143Y-106914761D01*
X140634762Y-106962380D01*
X140682381Y-107057618D01*
X140682381Y-107152857D01*
X140634762Y-107248095D01*
X140587143Y-107295714D01*
X140491905Y-107343333D01*
X140301429Y-107390952D01*
X140063333Y-107390952D01*
X139872857Y-107343333D01*
X139777619Y-107295714D01*
X139730000Y-107248095D01*
X139682381Y-107152857D01*
X140587143Y-106390952D02*
X140634762Y-106343333D01*
X140682381Y-106390952D01*
X140634762Y-106438571D01*
X140587143Y-106390952D01*
X140682381Y-106390952D01*
X140682381Y-105390952D02*
X140682381Y-105962381D01*
X140682381Y-105676667D02*
X139682381Y-105676667D01*
X139825238Y-105771905D01*
X139920476Y-105867143D01*
X139968095Y-105962381D01*
X140015714Y-104533809D02*
X140682381Y-104533809D01*
X140015714Y-104962381D02*
X140539524Y-104962381D01*
X140634762Y-104914762D01*
X140682381Y-104819524D01*
X140682381Y-104676666D01*
X140634762Y-104581428D01*
X140587143Y-104533809D01*
X140158571Y-103724285D02*
X140158571Y-104057619D01*
X140682381Y-104057619D02*
X139682381Y-104057619D01*
X139682381Y-103581428D01*
X153503334Y-96647143D02*
X153455715Y-96694762D01*
X153312858Y-96742381D01*
X153217620Y-96742381D01*
X153074762Y-96694762D01*
X152979524Y-96599524D01*
X152931905Y-96504286D01*
X152884286Y-96313810D01*
X152884286Y-96170952D01*
X152931905Y-95980476D01*
X152979524Y-95885238D01*
X153074762Y-95790000D01*
X153217620Y-95742381D01*
X153312858Y-95742381D01*
X153455715Y-95790000D01*
X153503334Y-95837619D01*
X153836667Y-95742381D02*
X154503334Y-95742381D01*
X154074762Y-96742381D01*
X152027143Y-98742381D02*
X152122382Y-98742381D01*
X152217620Y-98790000D01*
X152265239Y-98837619D01*
X152312858Y-98932857D01*
X152360477Y-99123333D01*
X152360477Y-99361429D01*
X152312858Y-99551905D01*
X152265239Y-99647143D01*
X152217620Y-99694762D01*
X152122382Y-99742381D01*
X152027143Y-99742381D01*
X151931905Y-99694762D01*
X151884286Y-99647143D01*
X151836667Y-99551905D01*
X151789048Y-99361429D01*
X151789048Y-99123333D01*
X151836667Y-98932857D01*
X151884286Y-98837619D01*
X151931905Y-98790000D01*
X152027143Y-98742381D01*
X152789048Y-99647143D02*
X152836667Y-99694762D01*
X152789048Y-99742381D01*
X152741429Y-99694762D01*
X152789048Y-99647143D01*
X152789048Y-99742381D01*
X153789048Y-99742381D02*
X153217619Y-99742381D01*
X153503333Y-99742381D02*
X153503333Y-98742381D01*
X153408095Y-98885238D01*
X153312857Y-98980476D01*
X153217619Y-99028095D01*
X154646191Y-99075714D02*
X154646191Y-99742381D01*
X154217619Y-99075714D02*
X154217619Y-99599524D01*
X154265238Y-99694762D01*
X154360476Y-99742381D01*
X154503334Y-99742381D01*
X154598572Y-99694762D01*
X154646191Y-99647143D01*
X155455715Y-99218571D02*
X155122381Y-99218571D01*
X155122381Y-99742381D02*
X155122381Y-98742381D01*
X155598572Y-98742381D01*
X146381905Y-119092381D02*
X146381905Y-118092381D01*
X146620000Y-118092381D01*
X146762858Y-118140000D01*
X146858096Y-118235238D01*
X146905715Y-118330476D01*
X146953334Y-118520952D01*
X146953334Y-118663810D01*
X146905715Y-118854286D01*
X146858096Y-118949524D01*
X146762858Y-119044762D01*
X146620000Y-119092381D01*
X146381905Y-119092381D01*
X147905715Y-119092381D02*
X147334286Y-119092381D01*
X147620000Y-119092381D02*
X147620000Y-118092381D01*
X147524762Y-118235238D01*
X147429524Y-118330476D01*
X147334286Y-118378095D01*
X145120000Y-116092381D02*
X144786666Y-115616190D01*
X144548571Y-116092381D02*
X144548571Y-115092381D01*
X144929524Y-115092381D01*
X145024762Y-115140000D01*
X145072381Y-115187619D01*
X145120000Y-115282857D01*
X145120000Y-115425714D01*
X145072381Y-115520952D01*
X145024762Y-115568571D01*
X144929524Y-115616190D01*
X144548571Y-115616190D01*
X145548571Y-115568571D02*
X145881905Y-115568571D01*
X146024762Y-116092381D02*
X145548571Y-116092381D01*
X145548571Y-115092381D01*
X146024762Y-115092381D01*
X146453333Y-116092381D02*
X146453333Y-115092381D01*
X146691428Y-115092381D01*
X146834286Y-115140000D01*
X146929524Y-115235238D01*
X146977143Y-115330476D01*
X147024762Y-115520952D01*
X147024762Y-115663810D01*
X146977143Y-115854286D01*
X146929524Y-115949524D01*
X146834286Y-116044762D01*
X146691428Y-116092381D01*
X146453333Y-116092381D01*
X147929524Y-116092381D02*
X147453333Y-116092381D01*
X147453333Y-115092381D01*
X148262857Y-115568571D02*
X148596191Y-115568571D01*
X148739048Y-116092381D02*
X148262857Y-116092381D01*
X148262857Y-115092381D01*
X148739048Y-115092381D01*
X149167619Y-116092381D02*
X149167619Y-115092381D01*
X149405714Y-115092381D01*
X149548572Y-115140000D01*
X149643810Y-115235238D01*
X149691429Y-115330476D01*
X149739048Y-115520952D01*
X149739048Y-115663810D01*
X149691429Y-115854286D01*
X149643810Y-115949524D01*
X149548572Y-116044762D01*
X149405714Y-116092381D01*
X149167619Y-116092381D01*
D17*
X147406667Y-121434524D02*
X147406667Y-122341667D01*
X147346191Y-122523095D01*
X147225239Y-122644048D01*
X147043810Y-122704524D01*
X146922858Y-122704524D01*
X148676667Y-122704524D02*
X147950953Y-122704524D01*
X148313810Y-122704524D02*
X148313810Y-121434524D01*
X148192858Y-121615952D01*
X148071905Y-121736905D01*
X147950953Y-121797381D01*
X142587857Y-126509286D02*
X142164524Y-126509286D01*
X142164524Y-127174524D02*
X142164524Y-125904524D01*
X142769286Y-125904524D01*
X143071666Y-125904524D02*
X143797381Y-125904524D01*
X143434524Y-127174524D02*
X143434524Y-125904524D01*
X144220714Y-127174524D02*
X144220714Y-125904524D01*
X144523095Y-125904524D01*
X144704523Y-125965000D01*
X144825476Y-126085952D01*
X144885952Y-126206905D01*
X144946428Y-126448810D01*
X144946428Y-126630238D01*
X144885952Y-126872143D01*
X144825476Y-126993095D01*
X144704523Y-127114048D01*
X144523095Y-127174524D01*
X144220714Y-127174524D01*
X145490714Y-127174524D02*
X145490714Y-125904524D01*
X145793095Y-127295476D02*
X146760714Y-127295476D01*
X147063095Y-127174524D02*
X147063095Y-125904524D01*
X147063095Y-126509286D02*
X147788809Y-126509286D01*
X147788809Y-127174524D02*
X147788809Y-125904524D01*
X148393571Y-126509286D02*
X148816904Y-126509286D01*
X148998333Y-127174524D02*
X148393571Y-127174524D01*
X148393571Y-125904524D01*
X148998333Y-125904524D01*
X149482143Y-126811667D02*
X150086905Y-126811667D01*
X149361190Y-127174524D02*
X149784524Y-125904524D01*
X150207857Y-127174524D01*
X150631190Y-127174524D02*
X150631190Y-125904524D01*
X150933571Y-125904524D01*
X151114999Y-125965000D01*
X151235952Y-126085952D01*
X151296428Y-126206905D01*
X151356904Y-126448810D01*
X151356904Y-126630238D01*
X151296428Y-126872143D01*
X151235952Y-126993095D01*
X151114999Y-127114048D01*
X150933571Y-127174524D01*
X150631190Y-127174524D01*
X151901190Y-126509286D02*
X152324523Y-126509286D01*
X152505952Y-127174524D02*
X151901190Y-127174524D01*
X151901190Y-125904524D01*
X152505952Y-125904524D01*
X153775952Y-127174524D02*
X153352619Y-126569762D01*
X153050238Y-127174524D02*
X153050238Y-125904524D01*
X153534047Y-125904524D01*
X153655000Y-125965000D01*
X153715476Y-126025476D01*
X153775952Y-126146429D01*
X153775952Y-126327857D01*
X153715476Y-126448810D01*
X153655000Y-126509286D01*
X153534047Y-126569762D01*
X153050238Y-126569762D01*
X162595000Y-112982381D02*
X162534524Y-113103333D01*
X162534524Y-113284762D01*
X162595000Y-113466190D01*
X162715952Y-113587143D01*
X162836905Y-113647619D01*
X163078810Y-113708095D01*
X163260238Y-113708095D01*
X163502143Y-113647619D01*
X163623095Y-113587143D01*
X163744048Y-113466190D01*
X163804524Y-113284762D01*
X163804524Y-113163810D01*
X163744048Y-112982381D01*
X163683571Y-112921905D01*
X163260238Y-112921905D01*
X163260238Y-113163810D01*
X163804524Y-112377619D02*
X162534524Y-112377619D01*
X162534524Y-111893810D01*
X162595000Y-111772857D01*
X162655476Y-111712381D01*
X162776429Y-111651905D01*
X162957857Y-111651905D01*
X163078810Y-111712381D01*
X163139286Y-111772857D01*
X163199762Y-111893810D01*
X163199762Y-112377619D01*
X163804524Y-111107619D02*
X162534524Y-111107619D01*
X162534524Y-110260952D02*
X162534524Y-110019048D01*
X162595000Y-109898095D01*
X162715952Y-109777143D01*
X162957857Y-109716667D01*
X163381190Y-109716667D01*
X163623095Y-109777143D01*
X163744048Y-109898095D01*
X163804524Y-110019048D01*
X163804524Y-110260952D01*
X163744048Y-110381905D01*
X163623095Y-110502857D01*
X163381190Y-110563333D01*
X162957857Y-110563333D01*
X162715952Y-110502857D01*
X162595000Y-110381905D01*
X162534524Y-110260952D01*
X163925476Y-109474762D02*
X163925476Y-108507143D01*
X163804524Y-108204762D02*
X162534524Y-108204762D01*
X163139286Y-108204762D02*
X163139286Y-107479048D01*
X163804524Y-107479048D02*
X162534524Y-107479048D01*
X163139286Y-106874286D02*
X163139286Y-106450953D01*
X163804524Y-106269524D02*
X163804524Y-106874286D01*
X162534524Y-106874286D01*
X162534524Y-106269524D01*
X163441667Y-105785714D02*
X163441667Y-105180952D01*
X163804524Y-105906667D02*
X162534524Y-105483333D01*
X163804524Y-105060000D01*
X163804524Y-104636667D02*
X162534524Y-104636667D01*
X162534524Y-104334286D01*
X162595000Y-104152858D01*
X162715952Y-104031905D01*
X162836905Y-103971429D01*
X163078810Y-103910953D01*
X163260238Y-103910953D01*
X163502143Y-103971429D01*
X163623095Y-104031905D01*
X163744048Y-104152858D01*
X163804524Y-104334286D01*
X163804524Y-104636667D01*
X163139286Y-103366667D02*
X163139286Y-102943334D01*
X163804524Y-102761905D02*
X163804524Y-103366667D01*
X162534524Y-103366667D01*
X162534524Y-102761905D01*
X163804524Y-101491905D02*
X163199762Y-101915238D01*
X163804524Y-102217619D02*
X162534524Y-102217619D01*
X162534524Y-101733810D01*
X162595000Y-101612857D01*
X162655476Y-101552381D01*
X162776429Y-101491905D01*
X162957857Y-101491905D01*
X163078810Y-101552381D01*
X163139286Y-101612857D01*
X163199762Y-101733810D01*
X163199762Y-102217619D01*
X130674524Y-109613333D02*
X131581667Y-109613333D01*
X131763095Y-109673809D01*
X131884048Y-109794761D01*
X131944524Y-109976190D01*
X131944524Y-110097142D01*
X130674524Y-109129523D02*
X130674524Y-108343333D01*
X131158333Y-108766666D01*
X131158333Y-108585238D01*
X131218810Y-108464285D01*
X131279286Y-108403809D01*
X131400238Y-108343333D01*
X131702619Y-108343333D01*
X131823571Y-108403809D01*
X131884048Y-108464285D01*
X131944524Y-108585238D01*
X131944524Y-108948095D01*
X131884048Y-109069047D01*
X131823571Y-109129523D01*
X137024524Y-117021905D02*
X137024524Y-117747619D01*
X137024524Y-117384762D02*
X135754524Y-117384762D01*
X135935952Y-117505714D01*
X136056905Y-117626667D01*
X136117381Y-117747619D01*
X135754524Y-116235714D02*
X135754524Y-116114762D01*
X135815000Y-115993810D01*
X135875476Y-115933333D01*
X135996429Y-115872857D01*
X136238333Y-115812381D01*
X136540714Y-115812381D01*
X136782619Y-115872857D01*
X136903571Y-115933333D01*
X136964048Y-115993810D01*
X137024524Y-116114762D01*
X137024524Y-116235714D01*
X136964048Y-116356667D01*
X136903571Y-116417143D01*
X136782619Y-116477619D01*
X136540714Y-116538095D01*
X136238333Y-116538095D01*
X135996429Y-116477619D01*
X135875476Y-116417143D01*
X135815000Y-116356667D01*
X135754524Y-116235714D01*
X137145476Y-115570476D02*
X137145476Y-114602857D01*
X137024524Y-114300476D02*
X135754524Y-114300476D01*
X135754524Y-113816667D01*
X135815000Y-113695714D01*
X135875476Y-113635238D01*
X135996429Y-113574762D01*
X136177857Y-113574762D01*
X136298810Y-113635238D01*
X136359286Y-113695714D01*
X136419762Y-113816667D01*
X136419762Y-114300476D01*
X137024524Y-113030476D02*
X136177857Y-113030476D01*
X135754524Y-113030476D02*
X135815000Y-113090952D01*
X135875476Y-113030476D01*
X135815000Y-112970000D01*
X135754524Y-113030476D01*
X135875476Y-113030476D01*
X136177857Y-112425714D02*
X137024524Y-112425714D01*
X136298810Y-112425714D02*
X136238333Y-112365238D01*
X136177857Y-112244285D01*
X136177857Y-112062857D01*
X136238333Y-111941905D01*
X136359286Y-111881428D01*
X137024524Y-111881428D01*
X136903571Y-110550952D02*
X136964048Y-110611428D01*
X137024524Y-110792857D01*
X137024524Y-110913809D01*
X136964048Y-111095237D01*
X136843095Y-111216190D01*
X136722143Y-111276666D01*
X136480238Y-111337142D01*
X136298810Y-111337142D01*
X136056905Y-111276666D01*
X135935952Y-111216190D01*
X135815000Y-111095237D01*
X135754524Y-110913809D01*
X135754524Y-110792857D01*
X135815000Y-110611428D01*
X135875476Y-110550952D01*
X135754524Y-109764761D02*
X135754524Y-109522857D01*
X135815000Y-109401904D01*
X135935952Y-109280952D01*
X136177857Y-109220476D01*
X136601190Y-109220476D01*
X136843095Y-109280952D01*
X136964048Y-109401904D01*
X137024524Y-109522857D01*
X137024524Y-109764761D01*
X136964048Y-109885714D01*
X136843095Y-110006666D01*
X136601190Y-110067142D01*
X136177857Y-110067142D01*
X135935952Y-110006666D01*
X135815000Y-109885714D01*
X135754524Y-109764761D01*
X137024524Y-108676190D02*
X135754524Y-108676190D01*
X137024524Y-107950476D01*
X135754524Y-107950476D01*
X137024524Y-107345714D02*
X135754524Y-107345714D01*
X137024524Y-106620000D01*
X135754524Y-106620000D01*
X136359286Y-106015238D02*
X136359286Y-105591905D01*
X137024524Y-105410476D02*
X137024524Y-106015238D01*
X135754524Y-106015238D01*
X135754524Y-105410476D01*
X136903571Y-104140476D02*
X136964048Y-104200952D01*
X137024524Y-104382381D01*
X137024524Y-104503333D01*
X136964048Y-104684761D01*
X136843095Y-104805714D01*
X136722143Y-104866190D01*
X136480238Y-104926666D01*
X136298810Y-104926666D01*
X136056905Y-104866190D01*
X135935952Y-104805714D01*
X135815000Y-104684761D01*
X135754524Y-104503333D01*
X135754524Y-104382381D01*
X135815000Y-104200952D01*
X135875476Y-104140476D01*
X135754524Y-103777619D02*
X135754524Y-103051904D01*
X137024524Y-103414761D02*
X135754524Y-103414761D01*
X135754524Y-102386666D02*
X135754524Y-102144762D01*
X135815000Y-102023809D01*
X135935952Y-101902857D01*
X136177857Y-101842381D01*
X136601190Y-101842381D01*
X136843095Y-101902857D01*
X136964048Y-102023809D01*
X137024524Y-102144762D01*
X137024524Y-102386666D01*
X136964048Y-102507619D01*
X136843095Y-102628571D01*
X136601190Y-102689047D01*
X136177857Y-102689047D01*
X135935952Y-102628571D01*
X135815000Y-102507619D01*
X135754524Y-102386666D01*
X137024524Y-100572381D02*
X136419762Y-100995714D01*
X137024524Y-101298095D02*
X135754524Y-101298095D01*
X135754524Y-100814286D01*
X135815000Y-100693333D01*
X135875476Y-100632857D01*
X135996429Y-100572381D01*
X136177857Y-100572381D01*
X136298810Y-100632857D01*
X136359286Y-100693333D01*
X136419762Y-100814286D01*
X136419762Y-101298095D01*
D16*
X148232381Y-116766666D02*
X147756190Y-117100000D01*
X148232381Y-117338095D02*
X147232381Y-117338095D01*
X147232381Y-116957142D01*
X147280000Y-116861904D01*
X147327619Y-116814285D01*
X147422857Y-116766666D01*
X147565714Y-116766666D01*
X147660952Y-116814285D01*
X147708571Y-116861904D01*
X147756190Y-116957142D01*
X147756190Y-117338095D01*
X148232381Y-115814285D02*
X148232381Y-116385714D01*
X148232381Y-116100000D02*
X147232381Y-116100000D01*
X147375238Y-116195238D01*
X147470476Y-116290476D01*
X147518095Y-116385714D01*
X151182381Y-117290476D02*
X151182381Y-117861905D01*
X151182381Y-117576191D02*
X150182381Y-117576191D01*
X150325238Y-117671429D01*
X150420476Y-117766667D01*
X150468095Y-117861905D01*
X150182381Y-116671429D02*
X150182381Y-116576190D01*
X150230000Y-116480952D01*
X150277619Y-116433333D01*
X150372857Y-116385714D01*
X150563333Y-116338095D01*
X150801429Y-116338095D01*
X150991905Y-116385714D01*
X151087143Y-116433333D01*
X151134762Y-116480952D01*
X151182381Y-116576190D01*
X151182381Y-116671429D01*
X151134762Y-116766667D01*
X151087143Y-116814286D01*
X150991905Y-116861905D01*
X150801429Y-116909524D01*
X150563333Y-116909524D01*
X150372857Y-116861905D01*
X150277619Y-116814286D01*
X150230000Y-116766667D01*
X150182381Y-116671429D01*
X151182381Y-115909524D02*
X150182381Y-115909524D01*
X151182381Y-115338095D02*
X150610952Y-115766667D01*
X150182381Y-115338095D02*
X150753810Y-115909524D01*
X148112381Y-112206666D02*
X147636190Y-112540000D01*
X148112381Y-112778095D02*
X147112381Y-112778095D01*
X147112381Y-112397142D01*
X147160000Y-112301904D01*
X147207619Y-112254285D01*
X147302857Y-112206666D01*
X147445714Y-112206666D01*
X147540952Y-112254285D01*
X147588571Y-112301904D01*
X147636190Y-112397142D01*
X147636190Y-112778095D01*
X147207619Y-111825714D02*
X147160000Y-111778095D01*
X147112381Y-111682857D01*
X147112381Y-111444761D01*
X147160000Y-111349523D01*
X147207619Y-111301904D01*
X147302857Y-111254285D01*
X147398095Y-111254285D01*
X147540952Y-111301904D01*
X148112381Y-111873333D01*
X148112381Y-111254285D01*
X151062381Y-112730476D02*
X151062381Y-113301905D01*
X151062381Y-113016191D02*
X150062381Y-113016191D01*
X150205238Y-113111429D01*
X150300476Y-113206667D01*
X150348095Y-113301905D01*
X150062381Y-112111429D02*
X150062381Y-112016190D01*
X150110000Y-111920952D01*
X150157619Y-111873333D01*
X150252857Y-111825714D01*
X150443333Y-111778095D01*
X150681429Y-111778095D01*
X150871905Y-111825714D01*
X150967143Y-111873333D01*
X151014762Y-111920952D01*
X151062381Y-112016190D01*
X151062381Y-112111429D01*
X151014762Y-112206667D01*
X150967143Y-112254286D01*
X150871905Y-112301905D01*
X150681429Y-112349524D01*
X150443333Y-112349524D01*
X150252857Y-112301905D01*
X150157619Y-112254286D01*
X150110000Y-112206667D01*
X150062381Y-112111429D01*
X151062381Y-111349524D02*
X150062381Y-111349524D01*
X151062381Y-110778095D02*
X150490952Y-111206667D01*
X150062381Y-110778095D02*
X150633810Y-111349524D01*
X145662381Y-112176666D02*
X145186190Y-112510000D01*
X145662381Y-112748095D02*
X144662381Y-112748095D01*
X144662381Y-112367142D01*
X144710000Y-112271904D01*
X144757619Y-112224285D01*
X144852857Y-112176666D01*
X144995714Y-112176666D01*
X145090952Y-112224285D01*
X145138571Y-112271904D01*
X145186190Y-112367142D01*
X145186190Y-112748095D01*
X144662381Y-111843333D02*
X144662381Y-111224285D01*
X145043333Y-111557619D01*
X145043333Y-111414761D01*
X145090952Y-111319523D01*
X145138571Y-111271904D01*
X145233810Y-111224285D01*
X145471905Y-111224285D01*
X145567143Y-111271904D01*
X145614762Y-111319523D01*
X145662381Y-111414761D01*
X145662381Y-111700476D01*
X145614762Y-111795714D01*
X145567143Y-111843333D01*
X148612381Y-112700476D02*
X148612381Y-113271905D01*
X148612381Y-112986191D02*
X147612381Y-112986191D01*
X147755238Y-113081429D01*
X147850476Y-113176667D01*
X147898095Y-113271905D01*
X147612381Y-112081429D02*
X147612381Y-111986190D01*
X147660000Y-111890952D01*
X147707619Y-111843333D01*
X147802857Y-111795714D01*
X147993333Y-111748095D01*
X148231429Y-111748095D01*
X148421905Y-111795714D01*
X148517143Y-111843333D01*
X148564762Y-111890952D01*
X148612381Y-111986190D01*
X148612381Y-112081429D01*
X148564762Y-112176667D01*
X148517143Y-112224286D01*
X148421905Y-112271905D01*
X148231429Y-112319524D01*
X147993333Y-112319524D01*
X147802857Y-112271905D01*
X147707619Y-112224286D01*
X147660000Y-112176667D01*
X147612381Y-112081429D01*
X148612381Y-111319524D02*
X147612381Y-111319524D01*
X148612381Y-110748095D02*
X148040952Y-111176667D01*
X147612381Y-110748095D02*
X148183810Y-111319524D01*
X146812381Y-112206666D02*
X146336190Y-112540000D01*
X146812381Y-112778095D02*
X145812381Y-112778095D01*
X145812381Y-112397142D01*
X145860000Y-112301904D01*
X145907619Y-112254285D01*
X146002857Y-112206666D01*
X146145714Y-112206666D01*
X146240952Y-112254285D01*
X146288571Y-112301904D01*
X146336190Y-112397142D01*
X146336190Y-112778095D01*
X146145714Y-111349523D02*
X146812381Y-111349523D01*
X145764762Y-111587619D02*
X146479048Y-111825714D01*
X146479048Y-111206666D01*
X149762381Y-112730476D02*
X149762381Y-113301905D01*
X149762381Y-113016191D02*
X148762381Y-113016191D01*
X148905238Y-113111429D01*
X149000476Y-113206667D01*
X149048095Y-113301905D01*
X148762381Y-112111429D02*
X148762381Y-112016190D01*
X148810000Y-111920952D01*
X148857619Y-111873333D01*
X148952857Y-111825714D01*
X149143333Y-111778095D01*
X149381429Y-111778095D01*
X149571905Y-111825714D01*
X149667143Y-111873333D01*
X149714762Y-111920952D01*
X149762381Y-112016190D01*
X149762381Y-112111429D01*
X149714762Y-112206667D01*
X149667143Y-112254286D01*
X149571905Y-112301905D01*
X149381429Y-112349524D01*
X149143333Y-112349524D01*
X148952857Y-112301905D01*
X148857619Y-112254286D01*
X148810000Y-112206667D01*
X148762381Y-112111429D01*
X149762381Y-111349524D02*
X148762381Y-111349524D01*
X149762381Y-110778095D02*
X149190952Y-111206667D01*
X148762381Y-110778095D02*
X149333810Y-111349524D01*
X149784762Y-116821905D02*
X149832381Y-116679048D01*
X149832381Y-116440952D01*
X149784762Y-116345714D01*
X149737143Y-116298095D01*
X149641905Y-116250476D01*
X149546667Y-116250476D01*
X149451429Y-116298095D01*
X149403810Y-116345714D01*
X149356190Y-116440952D01*
X149308571Y-116631429D01*
X149260952Y-116726667D01*
X149213333Y-116774286D01*
X149118095Y-116821905D01*
X149022857Y-116821905D01*
X148927619Y-116774286D01*
X148880000Y-116726667D01*
X148832381Y-116631429D01*
X148832381Y-116393333D01*
X148880000Y-116250476D01*
X149832381Y-115298095D02*
X149832381Y-115869524D01*
X149832381Y-115583810D02*
X148832381Y-115583810D01*
X148975238Y-115679048D01*
X149070476Y-115774286D01*
X149118095Y-115869524D01*
X154612381Y-117512381D02*
X154136190Y-117845715D01*
X154612381Y-118083810D02*
X153612381Y-118083810D01*
X153612381Y-117702857D01*
X153660000Y-117607619D01*
X153707619Y-117560000D01*
X153802857Y-117512381D01*
X153945714Y-117512381D01*
X154040952Y-117560000D01*
X154088571Y-117607619D01*
X154136190Y-117702857D01*
X154136190Y-118083810D01*
X154088571Y-117083810D02*
X154088571Y-116750476D01*
X154612381Y-116607619D02*
X154612381Y-117083810D01*
X153612381Y-117083810D01*
X153612381Y-116607619D01*
X154564762Y-116226667D02*
X154612381Y-116083810D01*
X154612381Y-115845714D01*
X154564762Y-115750476D01*
X154517143Y-115702857D01*
X154421905Y-115655238D01*
X154326667Y-115655238D01*
X154231429Y-115702857D01*
X154183810Y-115750476D01*
X154136190Y-115845714D01*
X154088571Y-116036191D01*
X154040952Y-116131429D01*
X153993333Y-116179048D01*
X153898095Y-116226667D01*
X153802857Y-116226667D01*
X153707619Y-116179048D01*
X153660000Y-116131429D01*
X153612381Y-116036191D01*
X153612381Y-115798095D01*
X153660000Y-115655238D01*
X154088571Y-115226667D02*
X154088571Y-114893333D01*
X154612381Y-114750476D02*
X154612381Y-115226667D01*
X153612381Y-115226667D01*
X153612381Y-114750476D01*
X153612381Y-114464762D02*
X153612381Y-113893333D01*
X154612381Y-114179048D02*
X153612381Y-114179048D01*
X146898095Y-122042381D02*
X146898095Y-122851905D01*
X146945714Y-122947143D01*
X146993333Y-122994762D01*
X147088571Y-123042381D01*
X147279048Y-123042381D01*
X147374286Y-122994762D01*
X147421905Y-122947143D01*
X147469524Y-122851905D01*
X147469524Y-122042381D01*
X148469524Y-123042381D02*
X147898095Y-123042381D01*
X148183809Y-123042381D02*
X148183809Y-122042381D01*
X148088571Y-122185238D01*
X147993333Y-122280476D01*
X147898095Y-122328095D01*
X148112381Y-119766190D02*
X147112381Y-119766190D01*
X147826667Y-119432856D01*
X147112381Y-119099523D01*
X148112381Y-119099523D01*
X148112381Y-118623333D02*
X147112381Y-118623333D01*
X148017143Y-117575714D02*
X148064762Y-117623333D01*
X148112381Y-117766190D01*
X148112381Y-117861428D01*
X148064762Y-118004286D01*
X147969524Y-118099524D01*
X147874286Y-118147143D01*
X147683810Y-118194762D01*
X147540952Y-118194762D01*
X147350476Y-118147143D01*
X147255238Y-118099524D01*
X147160000Y-118004286D01*
X147112381Y-117861428D01*
X147112381Y-117766190D01*
X147160000Y-117623333D01*
X147207619Y-117575714D01*
X147112381Y-116670952D02*
X147112381Y-117147143D01*
X147588571Y-117194762D01*
X147540952Y-117147143D01*
X147493333Y-117051905D01*
X147493333Y-116813809D01*
X147540952Y-116718571D01*
X147588571Y-116670952D01*
X147683810Y-116623333D01*
X147921905Y-116623333D01*
X148017143Y-116670952D01*
X148064762Y-116718571D01*
X148112381Y-116813809D01*
X148112381Y-117051905D01*
X148064762Y-117147143D01*
X148017143Y-117194762D01*
X147207619Y-116242381D02*
X147160000Y-116194762D01*
X147112381Y-116099524D01*
X147112381Y-115861428D01*
X147160000Y-115766190D01*
X147207619Y-115718571D01*
X147302857Y-115670952D01*
X147398095Y-115670952D01*
X147540952Y-115718571D01*
X148112381Y-116290000D01*
X148112381Y-115670952D01*
X147112381Y-115051905D02*
X147112381Y-114956666D01*
X147160000Y-114861428D01*
X147207619Y-114813809D01*
X147302857Y-114766190D01*
X147493333Y-114718571D01*
X147731429Y-114718571D01*
X147921905Y-114766190D01*
X148017143Y-114813809D01*
X148064762Y-114861428D01*
X148112381Y-114956666D01*
X148112381Y-115051905D01*
X148064762Y-115147143D01*
X148017143Y-115194762D01*
X147921905Y-115242381D01*
X147731429Y-115290000D01*
X147493333Y-115290000D01*
X147302857Y-115242381D01*
X147207619Y-115194762D01*
X147160000Y-115147143D01*
X147112381Y-115051905D01*
X147112381Y-113813809D02*
X147112381Y-114290000D01*
X147588571Y-114337619D01*
X147540952Y-114290000D01*
X147493333Y-114194762D01*
X147493333Y-113956666D01*
X147540952Y-113861428D01*
X147588571Y-113813809D01*
X147683810Y-113766190D01*
X147921905Y-113766190D01*
X148017143Y-113813809D01*
X148064762Y-113861428D01*
X148112381Y-113956666D01*
X148112381Y-114194762D01*
X148064762Y-114290000D01*
X148017143Y-114337619D01*
D18*
X147600362Y-106547448D02*
X147600362Y-106876438D01*
X147619714Y-106915143D01*
X147639067Y-106934495D01*
X147677771Y-106953848D01*
X147755181Y-106953848D01*
X147793886Y-106934495D01*
X147813238Y-106915143D01*
X147832590Y-106876438D01*
X147832590Y-106547448D01*
X148006762Y-106586152D02*
X148026114Y-106566800D01*
X148064819Y-106547448D01*
X148161581Y-106547448D01*
X148200285Y-106566800D01*
X148219638Y-106586152D01*
X148238990Y-106624857D01*
X148238990Y-106663562D01*
X148219638Y-106721619D01*
X147987409Y-106953848D01*
X148238990Y-106953848D01*
X145770001Y-105447733D02*
X146008096Y-105447733D01*
X145722382Y-105563848D02*
X145889049Y-105157448D01*
X146055715Y-105563848D01*
X146150953Y-105157448D02*
X146436667Y-105157448D01*
X146293810Y-105563848D02*
X146293810Y-105157448D01*
X146603334Y-105563848D02*
X146603334Y-105157448D01*
X146770000Y-105447733D01*
X146936667Y-105157448D01*
X146936667Y-105563848D01*
X147174763Y-105350971D02*
X147341429Y-105350971D01*
X147412858Y-105563848D02*
X147174763Y-105563848D01*
X147174763Y-105157448D01*
X147412858Y-105157448D01*
X147889048Y-105176800D02*
X147841429Y-105157448D01*
X147770001Y-105157448D01*
X147698572Y-105176800D01*
X147650953Y-105215505D01*
X147627144Y-105254210D01*
X147603334Y-105331619D01*
X147603334Y-105389676D01*
X147627144Y-105467086D01*
X147650953Y-105505790D01*
X147698572Y-105544495D01*
X147770001Y-105563848D01*
X147817620Y-105563848D01*
X147889048Y-105544495D01*
X147912858Y-105525143D01*
X147912858Y-105389676D01*
X147817620Y-105389676D01*
X148103334Y-105447733D02*
X148341429Y-105447733D01*
X148055715Y-105563848D02*
X148222382Y-105157448D01*
X148389048Y-105563848D01*
X148508096Y-105157448D02*
X148817619Y-105157448D01*
X148650953Y-105312267D01*
X148722381Y-105312267D01*
X148770000Y-105331619D01*
X148793810Y-105350971D01*
X148817619Y-105389676D01*
X148817619Y-105486438D01*
X148793810Y-105525143D01*
X148770000Y-105544495D01*
X148722381Y-105563848D01*
X148579524Y-105563848D01*
X148531905Y-105544495D01*
X148508096Y-105525143D01*
X149008095Y-105196152D02*
X149031905Y-105176800D01*
X149079524Y-105157448D01*
X149198571Y-105157448D01*
X149246190Y-105176800D01*
X149270000Y-105196152D01*
X149293809Y-105234857D01*
X149293809Y-105273562D01*
X149270000Y-105331619D01*
X148984286Y-105563848D01*
X149293809Y-105563848D01*
X149579523Y-105331619D02*
X149531904Y-105312267D01*
X149508095Y-105292914D01*
X149484285Y-105254210D01*
X149484285Y-105234857D01*
X149508095Y-105196152D01*
X149531904Y-105176800D01*
X149579523Y-105157448D01*
X149674761Y-105157448D01*
X149722380Y-105176800D01*
X149746190Y-105196152D01*
X149769999Y-105234857D01*
X149769999Y-105254210D01*
X149746190Y-105292914D01*
X149722380Y-105312267D01*
X149674761Y-105331619D01*
X149579523Y-105331619D01*
X149531904Y-105350971D01*
X149508095Y-105370324D01*
X149484285Y-105409029D01*
X149484285Y-105486438D01*
X149508095Y-105525143D01*
X149531904Y-105544495D01*
X149579523Y-105563848D01*
X149674761Y-105563848D01*
X149722380Y-105544495D01*
X149746190Y-105525143D01*
X149769999Y-105486438D01*
X149769999Y-105409029D01*
X149746190Y-105370324D01*
X149722380Y-105350971D01*
X149674761Y-105331619D01*
D19*
X153637752Y-103293952D02*
X154018705Y-103293952D01*
X153218705Y-103560619D02*
X153637752Y-103293952D01*
X153218705Y-103027285D01*
X154018705Y-102341571D02*
X154018705Y-102798714D01*
X154018705Y-102570143D02*
X153218705Y-102570143D01*
X153332990Y-102646333D01*
X153409181Y-102722524D01*
X153447276Y-102798714D01*
D18*
X156623848Y-105688362D02*
X156430324Y-105823828D01*
X156623848Y-105920590D02*
X156217448Y-105920590D01*
X156217448Y-105765771D01*
X156236800Y-105727066D01*
X156256152Y-105707714D01*
X156294857Y-105688362D01*
X156352914Y-105688362D01*
X156391619Y-105707714D01*
X156410971Y-105727066D01*
X156430324Y-105765771D01*
X156430324Y-105920590D01*
X156410971Y-105514190D02*
X156410971Y-105378723D01*
X156623848Y-105320666D02*
X156623848Y-105514190D01*
X156217448Y-105514190D01*
X156217448Y-105320666D01*
X156604495Y-105165847D02*
X156623848Y-105107790D01*
X156623848Y-105011028D01*
X156604495Y-104972324D01*
X156585143Y-104952971D01*
X156546438Y-104933619D01*
X156507733Y-104933619D01*
X156469029Y-104952971D01*
X156449676Y-104972324D01*
X156430324Y-105011028D01*
X156410971Y-105088438D01*
X156391619Y-105127143D01*
X156372267Y-105146495D01*
X156333562Y-105165847D01*
X156294857Y-105165847D01*
X156256152Y-105146495D01*
X156236800Y-105127143D01*
X156217448Y-105088438D01*
X156217448Y-104991676D01*
X156236800Y-104933619D01*
X156217448Y-104682038D02*
X156217448Y-104604628D01*
X156236800Y-104565923D01*
X156275505Y-104527219D01*
X156352914Y-104507866D01*
X156488381Y-104507866D01*
X156565790Y-104527219D01*
X156604495Y-104565923D01*
X156623848Y-104604628D01*
X156623848Y-104682038D01*
X156604495Y-104720742D01*
X156565790Y-104759447D01*
X156488381Y-104778799D01*
X156352914Y-104778799D01*
X156275505Y-104759447D01*
X156236800Y-104720742D01*
X156217448Y-104682038D01*
X156623848Y-104333695D02*
X156217448Y-104333695D01*
X156623848Y-104101467D01*
X156217448Y-104101467D01*
X156507733Y-103927295D02*
X156507733Y-103733772D01*
X156623848Y-103966000D02*
X156217448Y-103830534D01*
X156623848Y-103695067D01*
X156217448Y-103617657D02*
X156217448Y-103385429D01*
X156623848Y-103501543D02*
X156217448Y-103501543D01*
X156217448Y-103172553D02*
X156217448Y-103095143D01*
X156236800Y-103056438D01*
X156275505Y-103017734D01*
X156352914Y-102998381D01*
X156488381Y-102998381D01*
X156565790Y-103017734D01*
X156604495Y-103056438D01*
X156623848Y-103095143D01*
X156623848Y-103172553D01*
X156604495Y-103211257D01*
X156565790Y-103249962D01*
X156488381Y-103269314D01*
X156352914Y-103269314D01*
X156275505Y-103249962D01*
X156236800Y-103211257D01*
X156217448Y-103172553D01*
X156623848Y-102591982D02*
X156430324Y-102727448D01*
X156623848Y-102824210D02*
X156217448Y-102824210D01*
X156217448Y-102669391D01*
X156236800Y-102630686D01*
X156256152Y-102611334D01*
X156294857Y-102591982D01*
X156352914Y-102591982D01*
X156391619Y-102611334D01*
X156410971Y-102630686D01*
X156430324Y-102669391D01*
X156430324Y-102824210D01*
X156662552Y-102514572D02*
X156662552Y-102204934D01*
X156623848Y-102108172D02*
X156217448Y-102108172D01*
X156217448Y-101953353D01*
X156236800Y-101914648D01*
X156256152Y-101895296D01*
X156294857Y-101875944D01*
X156352914Y-101875944D01*
X156391619Y-101895296D01*
X156410971Y-101914648D01*
X156430324Y-101953353D01*
X156430324Y-102108172D01*
X156623848Y-101701772D02*
X156352914Y-101701772D01*
X156430324Y-101701772D02*
X156391619Y-101682420D01*
X156372267Y-101663067D01*
X156352914Y-101624363D01*
X156352914Y-101585658D01*
X156623848Y-101392134D02*
X156604495Y-101430839D01*
X156585143Y-101450191D01*
X156546438Y-101469543D01*
X156430324Y-101469543D01*
X156391619Y-101450191D01*
X156372267Y-101430839D01*
X156352914Y-101392134D01*
X156352914Y-101334077D01*
X156372267Y-101295372D01*
X156391619Y-101276020D01*
X156430324Y-101256667D01*
X156546438Y-101256667D01*
X156585143Y-101276020D01*
X156604495Y-101295372D01*
X156623848Y-101334077D01*
X156623848Y-101392134D01*
X156623848Y-101082496D02*
X156352914Y-101082496D01*
X156391619Y-101082496D02*
X156372267Y-101063144D01*
X156352914Y-101024439D01*
X156352914Y-100966382D01*
X156372267Y-100927677D01*
X156410971Y-100908325D01*
X156623848Y-100908325D01*
X156410971Y-100908325D02*
X156372267Y-100888972D01*
X156352914Y-100850268D01*
X156352914Y-100792210D01*
X156372267Y-100753506D01*
X156410971Y-100734153D01*
X156623848Y-100734153D01*
X156623848Y-100540629D02*
X156352914Y-100540629D01*
X156217448Y-100540629D02*
X156236800Y-100559981D01*
X156256152Y-100540629D01*
X156236800Y-100521277D01*
X156217448Y-100540629D01*
X156256152Y-100540629D01*
X156352914Y-100347105D02*
X156623848Y-100347105D01*
X156391619Y-100347105D02*
X156372267Y-100327753D01*
X156352914Y-100289048D01*
X156352914Y-100230991D01*
X156372267Y-100192286D01*
X156410971Y-100172934D01*
X156623848Y-100172934D01*
X156623848Y-99979410D02*
X156352914Y-99979410D01*
X156217448Y-99979410D02*
X156236800Y-99998762D01*
X156256152Y-99979410D01*
X156236800Y-99960058D01*
X156217448Y-99979410D01*
X156256152Y-99979410D01*
M02*
